<svg width="190" height="52" viewBox="0 0 190 52" fill="none" xmlns="http://www.w3.org/2000/svg">
<g clip-path="url(#clip0_713_2532)">
<path d="M21.1571 0.0668945H0.374023V51.3394L21.1571 0.0668945Z" fill="#EDEDED"/>
<path d="M35.7793 0.0668945H56.5353V51.3394L35.7793 0.0668945Z" fill="#EDEDED"/>
<path d="M28.4688 18.9639L41.6968 51.3391H33.018L29.0645 41.0316H19.3838L28.4688 18.9639Z" fill="#EDEDED"/>
<path d="M90.4419 32.6728L92.8925 39.9216C92.9738 40.1032 93.0956 40.187 93.3123 40.187H98.024C98.2812 40.187 98.3219 40.0613 98.2812 39.7959L88.5464 11.904C88.5057 11.6806 88.4651 11.6387 88.2485 11.6387H82.3994C82.237 11.6387 82.1422 11.7644 82.1422 11.9459C82.0609 13.4125 81.9391 13.8594 81.7631 14.2924L73.0843 39.754C73.0437 40.0613 73.1385 40.187 73.3822 40.187H77.5929C77.8502 40.187 77.972 40.1032 78.0668 39.8378L80.3821 32.6728H90.4419ZM81.7225 27.938C82.9952 23.9714 84.6741 18.8875 85.3511 15.9824H85.3917C86.2311 19.0272 88.2079 25.0609 89.1015 27.938H81.7225Z" fill="#EDEDED"/>
<path d="M110.796 40.6201C113.328 40.6201 116.022 40.1453 118.757 38.9301C118.974 38.8463 119.014 38.7486 119.014 38.5391C118.933 37.7569 118.838 36.6256 118.838 35.7597V9.50189C118.838 9.33429 118.838 9.25049 118.635 9.25049H114.045C113.869 9.25049 113.788 9.33429 113.788 9.55776V18.4547C113.071 18.3709 112.57 18.329 111.974 18.329C104.568 18.329 100.019 23.371 100.019 29.6701C100.019 36.9748 104.69 40.6201 110.796 40.6201ZM113.788 35.7597C113.03 36.0111 112.191 36.1088 111.338 36.1088C107.98 36.1088 105.231 34.1535 105.231 29.4047C105.231 25.2007 108.061 22.7146 111.811 22.7146C112.57 22.7146 113.233 22.7984 113.788 23.0218V35.7597Z" fill="#EDEDED"/>
<path d="M133.657 18.3291C127.334 18.3291 123.421 23.3292 123.421 29.5026C123.421 35.0195 126.535 40.6203 133.562 40.6203C139.506 40.6203 143.676 36.109 143.676 29.3629C143.676 23.413 140.142 18.3291 133.657 18.3291ZM133.399 22.7147C136.974 22.7147 138.49 25.8852 138.49 29.5026C138.49 33.972 136.256 36.1928 133.657 36.1928C130.448 36.1928 128.552 33.4133 128.552 29.4048C128.552 25.2846 130.57 22.7147 133.399 22.7147Z" fill="#EDEDED"/>
<path d="M148.422 9.25049C148.246 9.25049 148.124 9.33429 148.124 9.55776V39.2793C148.124 39.405 148.246 39.6285 148.422 39.6704C150.439 40.3129 152.551 40.6201 154.731 40.6201C160.973 40.6201 167.039 36.6256 167.039 28.5807C167.039 22.7565 163.166 18.329 157.101 18.329C155.706 18.329 154.406 18.5524 153.269 18.9435L153.215 9.59966C153.215 9.29239 153.134 9.25049 152.836 9.25049H148.422ZM161.853 29.1114C161.853 33.93 158.658 36.1926 155.205 36.1926C154.488 36.1926 153.851 36.1507 153.269 35.9692V23.2872C153.932 23.0218 154.731 22.7984 156.207 22.7984C159.538 22.7984 161.853 24.9772 161.853 29.1114Z" fill="#EDEDED"/>
<path d="M184.168 30.6758C186.226 30.6758 187.918 30.6339 188.501 30.4943C188.717 30.4524 188.798 30.3686 188.839 30.187C188.961 29.7121 189.015 28.7205 189.015 27.5053C189.015 23.3711 186.605 18.3291 180.377 18.3291C174.013 18.3291 170.479 23.6784 170.479 29.7121C170.479 35.0614 173.214 40.6203 180.878 40.6203C183.748 40.6203 185.603 40.1454 187.201 39.3632C187.363 39.2794 187.444 39.1398 187.444 38.8884V35.2709C187.444 35.0614 187.323 35.0195 187.201 35.1033C185.603 35.8017 183.87 36.1509 181.974 36.1509C177.682 36.1509 175.733 33.7066 175.611 30.6758H184.168ZM175.611 26.9327C175.949 24.8097 177.249 22.5052 180.16 22.5052C183.369 22.5052 184.208 25.2846 184.208 26.5416C184.208 26.5835 184.208 26.7651 184.208 26.8908C184.032 26.9327 183.491 26.9327 181.893 26.9327H175.611Z" fill="#EDEDED"/>
</g>
<defs>
<clipPath id="clip0_713_2532">
<rect width="188.641" height="51.2725" fill="white" transform="translate(0.374023 0.0668945)"/>
</clipPath>
</defs>
</svg>
