<svg width="230" height="45" viewBox="0 0 230 45" fill="none" xmlns="http://www.w3.org/2000/svg">
<g clip-path="url(#clip0_713_2544)">
<path d="M77.2734 9.39551H89.5964C92.5665 9.39551 95.0792 9.86964 97.1346 10.8179C99.0269 11.6318 100.634 13.0133 101.743 14.7803C102.782 16.5258 103.314 18.5375 103.278 20.5807C103.301 22.6333 102.748 24.6495 101.685 26.3903C100.499 28.2293 98.8025 29.6638 96.8141 30.5097C94.6354 31.5257 91.9346 32.0322 88.7116 32.0291H77.2734V9.39551ZM88.5853 26.2703C90.5864 26.2703 92.1241 25.7592 93.1985 24.737C93.7432 24.1966 94.1688 23.5433 94.4467 22.8209C94.7246 22.0985 94.8484 21.3237 94.8099 20.5484C94.8434 19.8287 94.7335 19.1095 94.4867 18.4347C94.2399 17.7598 93.8615 17.1434 93.3745 16.6229C92.4115 15.6439 90.9626 15.1528 89.0276 15.1497H85.1728V26.2703H88.5853Z" fill="#EDEDED"/>
<path d="M121.73 31.9921C120.105 31.5753 118.55 30.9106 117.117 30.0201V24.6538C118.368 25.5844 119.776 26.2702 121.27 26.6766C122.905 27.1869 124.603 27.4529 126.312 27.4663C126.902 27.4985 127.491 27.3943 128.036 27.1615C128.424 26.9583 128.619 26.6997 128.619 26.4318C128.623 26.2822 128.597 26.1332 128.543 25.9942C128.488 25.8552 128.407 25.7291 128.303 25.6237C127.942 25.3399 127.519 25.1512 127.07 25.0741L123.279 24.2013C121.106 23.684 119.564 22.9682 118.652 22.0538C118.194 21.5815 117.837 21.0169 117.604 20.396C117.371 19.7751 117.267 19.1114 117.298 18.447C117.283 17.2429 117.711 16.0772 118.498 15.182C119.432 14.1719 120.609 13.4312 121.911 13.0345C123.587 12.4957 125.337 12.2383 127.093 12.2725C128.732 12.2568 130.367 12.4523 131.959 12.8544C133.245 13.1661 134.479 13.667 135.624 14.3415V19.4215C134.55 18.7841 133.396 18.3008 132.194 17.9852C130.891 17.6278 129.548 17.4477 128.199 17.4495C126.219 17.4495 125.229 17.7943 125.229 18.484C125.225 18.6375 125.266 18.7887 125.347 18.9185C125.427 19.0483 125.543 19.151 125.68 19.2136C126.221 19.449 126.788 19.6164 127.368 19.7124L130.528 20.2943C132.58 20.6637 134.11 21.3103 135.119 22.2339C136.127 23.1576 136.632 24.5091 136.635 26.2887C136.651 27.2244 136.428 28.1482 135.987 28.9681C135.546 29.788 134.902 30.4755 134.121 30.9623C132.457 32.1045 130.081 32.674 126.994 32.671C125.218 32.6738 123.45 32.4457 121.73 31.9921Z" fill="#EDEDED"/>
<path d="M144.101 31.3134C142.412 30.5193 140.988 29.2345 140.007 27.6189C139.092 26.0345 138.623 24.222 138.653 22.3819C138.625 20.5429 139.119 18.7352 140.075 17.1772C141.093 15.587 142.542 14.3352 144.245 13.5751C146.316 12.6519 148.56 12.2042 150.818 12.2635C153.977 12.2635 156.6 12.9424 158.685 14.3001V20.2252C157.892 19.6796 157.025 19.2549 156.112 18.9645C155.091 18.6344 154.024 18.4708 152.953 18.4796C150.994 18.4796 149.46 18.8459 148.353 19.5787C147.855 19.8629 147.44 20.277 147.149 20.7788C146.859 21.2806 146.703 21.8522 146.699 22.4354C146.694 23.0187 146.841 23.5928 147.123 24.0993C147.406 24.6058 147.815 25.0266 148.308 25.3191C149.382 26.061 150.941 26.432 152.984 26.432C154.039 26.4346 155.088 26.279 156.099 25.9702C157.021 25.6998 157.906 25.3135 158.735 24.8203V30.5468C156.293 32.0037 153.504 32.7421 150.678 32.6804C148.412 32.7437 146.163 32.2761 144.101 31.3134Z" fill="#EDEDED"/>
<path d="M166.554 31.3135C164.845 30.5155 163.396 29.2334 162.378 27.619C161.419 26.0384 160.921 24.2102 160.943 22.3497C160.912 20.5112 161.411 18.7042 162.378 17.1542C163.402 15.5809 164.844 14.3405 166.535 13.5798C170.689 11.8556 175.336 11.8556 179.49 13.5798C181.175 14.3347 182.612 15.569 183.63 17.1358C184.59 18.6915 185.084 20.5007 185.051 22.3404C185.074 24.1991 184.581 26.0261 183.63 27.6098C182.623 29.2253 181.18 30.5083 179.477 31.3043C177.435 32.2001 175.237 32.662 173.015 32.662C170.794 32.662 168.595 32.2001 166.554 31.3043V31.3135ZM176.155 25.5778C176.545 25.1654 176.849 24.6758 177.048 24.139C177.246 23.6021 177.336 23.0294 177.31 22.4559C177.337 21.8878 177.249 21.3201 177.05 20.7889C176.851 20.2578 176.546 19.7749 176.155 19.371C175.73 18.9726 175.232 18.6655 174.689 18.468C174.146 18.2705 173.57 18.1865 172.995 18.221C172.42 18.1901 171.845 18.2758 171.303 18.4731C170.76 18.6705 170.262 18.9756 169.835 19.371C169.445 19.7758 169.142 20.259 168.943 20.79C168.745 21.3209 168.657 21.8882 168.684 22.4559C168.659 23.0289 168.748 23.6013 168.946 24.138C169.144 24.6747 169.446 25.1646 169.835 25.5778C170.257 25.9811 170.755 26.2932 171.298 26.4956C171.841 26.6979 172.418 26.7863 172.995 26.7554C173.572 26.7898 174.15 26.703 174.694 26.5005C175.237 26.298 175.734 25.984 176.155 25.5778Z" fill="#EDEDED"/>
<path d="M204.042 13.4597V20.4516C203.098 19.8757 202.011 19.5947 200.914 19.6434C199.23 19.6434 197.93 20.1699 197.027 21.2136C196.124 22.2573 195.673 23.8782 195.673 26.0765V32.0247H187.932V13.1133H195.515V19.1169C195.936 16.9187 196.616 15.2977 197.555 14.254C198.01 13.7408 198.569 13.3346 199.192 13.0635C199.816 12.7925 200.489 12.6629 201.166 12.6838C202.178 12.6556 203.176 12.9249 204.042 13.4597Z" fill="#EDEDED"/>
<path d="M229.761 8.74902V32.0246H222.02V27.7759C221.436 29.2884 220.387 30.5657 219.032 31.415C217.535 32.2872 215.833 32.7218 214.111 32.6711C212.491 32.7097 210.897 32.2548 209.53 31.3642C208.206 30.4844 207.152 29.2408 206.487 27.7759C205.763 26.1588 205.402 24.3961 205.431 22.6174C205.38 20.7732 205.764 18.9436 206.551 17.2834C207.274 15.7627 208.402 14.482 209.805 13.5889C211.248 12.6947 212.908 12.2352 214.594 12.2634C218.278 12.2634 220.753 13.9014 222.02 17.1772V8.74902H229.761ZM220.882 25.4668C221.277 25.0695 221.586 24.5924 221.791 24.0661C221.995 23.5397 222.09 22.9755 222.069 22.4096C222.086 21.8605 221.989 21.3141 221.784 20.8062C221.58 20.2984 221.272 19.8406 220.882 19.4632C219.997 18.7254 218.889 18.3226 217.747 18.3226C216.605 18.3226 215.498 18.7254 214.613 19.4632C214.223 19.8493 213.918 20.3149 213.717 20.8297C213.515 21.3446 213.422 21.897 213.443 22.4511C213.424 23.0104 213.519 23.5678 213.722 24.0872C213.926 24.6066 214.234 25.0766 214.626 25.4668C215.041 25.8612 215.528 26.1669 216.06 26.3659C216.592 26.565 217.157 26.6534 217.723 26.6259C218.298 26.6585 218.874 26.5727 219.417 26.3736C219.96 26.1745 220.458 25.8661 220.882 25.4668Z" fill="#EDEDED"/>
<path d="M48.7679 3.79375C44.9973 2.02762 41.0168 0.774664 36.928 0.0668945C36.3685 1.09023 35.8622 2.1431 35.4113 3.2211C31.0559 2.54963 26.6268 2.54963 22.2714 3.2211C21.8202 2.14321 21.314 1.09035 20.7547 0.0668945C16.6632 0.780641 12.6801 2.03657 8.90572 3.80299C1.41265 15.1452 -0.618599 26.2057 0.397027 37.1092C4.78515 40.4262 9.69672 42.9489 14.9182 44.5675C16.094 42.9497 17.1343 41.2333 18.0283 39.4367C16.3303 38.7879 14.6915 37.9874 13.1307 37.0445C13.5415 36.7397 13.9432 36.4257 14.3314 36.1209C18.8728 38.306 23.8296 39.4389 28.8481 39.4389C33.8666 39.4389 38.8234 38.306 43.3648 36.1209C43.7575 36.4488 44.1592 36.7628 44.5655 37.0445C43.0017 37.9889 41.3599 38.791 39.6589 39.4414C40.5518 41.2371 41.5922 42.952 42.769 44.5675C47.9949 42.9554 52.9102 40.4339 57.2992 37.1138C58.4908 24.4693 55.2634 13.5104 48.7679 3.79375ZM19.3148 30.4036C16.4845 30.4036 14.1463 27.7759 14.1463 24.5432C14.1463 21.3104 16.4033 18.6596 19.3057 18.6596C22.2082 18.6596 24.5283 21.3104 24.4787 24.5432C24.429 27.7759 22.1991 30.4036 19.3148 30.4036ZM38.3814 30.4036C35.5467 30.4036 33.2175 27.7759 33.2175 24.5432C33.2175 21.3104 35.4745 18.6596 38.3814 18.6596C41.2884 18.6596 43.5905 21.3104 43.5408 24.5432C43.4912 27.7759 41.2658 30.4036 38.3814 30.4036Z" fill="#EDEDED"/>
<path d="M109.805 15.1267C111.936 15.1267 113.664 13.5388 113.664 11.58C113.664 9.62114 111.936 8.0332 109.805 8.0332C107.673 8.0332 105.945 9.62114 105.945 11.58C105.945 13.5388 107.673 15.1267 109.805 15.1267Z" fill="#EDEDED"/>
<path d="M105.941 17.5698C107.164 18.0955 108.477 18.3663 109.803 18.3663C111.129 18.3663 112.442 18.0955 113.665 17.5698V32.1263H105.941V17.5698Z" fill="#EDEDED"/>
</g>
<defs>
<clipPath id="clip0_713_2544">
<rect width="229.608" height="44.5006" fill="white" transform="translate(0.15332 0.0668945)"/>
</clipPath>
</defs>
</svg>
