<svg width="202" height="69" viewBox="0 0 202 69" fill="none" xmlns="http://www.w3.org/2000/svg">
<path d="M86.1027 35.4349C86.1027 44.8345 78.7545 51.7609 69.7364 51.7609C60.7184 51.7609 53.3701 44.8345 53.3701 35.4349C53.3701 25.969 60.7184 19.1089 69.7364 19.1089C78.7545 19.1089 86.1027 25.969 86.1027 35.4349ZM78.9383 35.4349C78.9383 29.5611 74.6794 25.5421 69.7364 25.5421C64.7934 25.5421 60.5345 29.5611 60.5345 35.4349C60.5345 41.2498 64.7934 45.3277 69.7364 45.3277C74.6794 45.3277 78.9383 41.2425 78.9383 35.4349Z" fill="#EDEDED"/>
<path d="M121.409 35.4349C121.409 44.8345 114.061 51.7609 105.043 51.7609C96.025 51.7609 88.6768 44.8345 88.6768 35.4349C88.6768 25.9764 96.025 19.1089 105.043 19.1089C114.061 19.1089 121.409 25.969 121.409 35.4349ZM114.245 35.4349C114.245 29.5611 109.986 25.5421 105.043 25.5421C100.1 25.5421 95.8412 29.5611 95.8412 35.4349C95.8412 41.2498 100.1 45.3277 105.043 45.3277C109.986 45.3277 114.245 41.2425 114.245 35.4349Z" fill="#EDEDED"/>
<path d="M155.246 20.0952V49.4055C155.246 61.4623 148.14 66.3866 139.74 66.3866C131.833 66.3866 127.074 61.0943 125.279 56.7662L131.517 54.1678C132.627 56.8251 135.349 59.9607 139.733 59.9607C145.11 59.9607 148.442 56.641 148.442 50.3918V48.0438H148.192C146.588 50.0238 143.499 51.7535 139.6 51.7535C131.443 51.7535 123.97 44.6431 123.97 35.4938C123.97 26.2782 131.443 19.1089 139.6 19.1089C143.492 19.1089 146.581 20.8386 148.192 22.7598H148.442V20.1026H155.246V20.0952ZM148.95 35.4938C148.95 29.7451 145.117 25.5421 140.24 25.5421C135.297 25.5421 131.156 29.7451 131.156 35.4938C131.156 41.1836 135.297 45.3277 140.24 45.3277C145.117 45.3277 148.95 41.1836 148.95 35.4938Z" fill="#EDEDED"/>
<path d="M166.462 2.91504V50.7595H159.475V2.91504H166.462Z" fill="#EDEDED"/>
<path d="M193.694 40.8082L199.255 44.518C197.46 47.1752 193.135 51.7536 185.661 51.7536C176.393 51.7536 169.472 44.5843 169.472 35.4276C169.472 25.7188 176.452 19.1016 184.86 19.1016C193.326 19.1016 197.467 25.844 198.821 29.4875L199.564 31.3424L177.754 40.3813C179.424 43.6568 182.02 45.3277 185.661 45.3277C189.31 45.3277 191.84 43.5317 193.694 40.8082ZM176.577 34.9344L191.156 28.8766C190.354 26.8376 187.942 25.417 185.102 25.417C181.461 25.417 176.393 28.6337 176.577 34.9344Z" fill="#EDEDED"/>
<path d="M26.9189 31.1879V24.2615H50.2436C50.4716 25.4686 50.5893 26.8966 50.5893 28.4423C50.5893 33.639 49.1697 40.0649 44.5945 44.6432C40.1443 49.2804 34.4584 51.7536 26.9262 51.7536C12.9652 51.7536 1.22559 40.374 1.22559 26.4034C1.22559 12.4328 12.9652 1.05322 26.9262 1.05322C34.6496 1.05322 40.1517 4.08583 44.2855 8.03852L39.4014 12.926C36.4371 10.1437 32.4209 7.97963 26.9189 7.97963C16.7239 7.97963 8.75041 16.2015 8.75041 26.4034C8.75041 36.6053 16.7239 44.8272 26.9189 44.8272C33.5316 44.8272 37.2977 42.17 39.7103 39.7557C41.6669 37.7978 42.9542 35.0007 43.4617 31.1805L26.9189 31.1879Z" fill="#EDEDED"/>
</svg>
