<svg width="218" height="56" viewBox="0 0 218 56" fill="none" xmlns="http://www.w3.org/2000/svg">
<path fill-rule="evenodd" clip-rule="evenodd" d="M7.15291 9.6681C6.86601 9.98825 6.88502 10.4795 7.18642 10.7856L44.4372 48.61C44.7386 48.9161 45.2224 48.9354 45.5377 48.6441C50.9997 43.5973 54.4282 36.321 54.4282 28.2316C54.4282 12.9936 42.2627 0.640625 27.2557 0.640625C19.289 0.640625 12.1231 4.12195 7.15291 9.6681ZM2.49714 16.8465C2.35949 17.1547 2.4289 17.5161 2.66454 17.7553L37.5731 53.2015C37.8087 53.4408 38.1646 53.5113 38.4681 53.3716C39.2746 53.0001 40.0599 52.5899 40.8219 52.1431C41.2749 51.8776 41.3443 51.2501 40.9744 50.8746L4.95617 14.3016C4.58636 13.9261 3.96838 13.9966 3.70689 14.4565C3.26695 15.2302 2.86292 16.0277 2.49714 16.8465ZM0.379351 26.9963C0.215903 26.8304 0.128937 26.6016 0.144324 26.3674C0.216389 25.2706 0.351576 24.1914 0.54623 23.1334C0.662947 22.4989 1.42638 22.2788 1.8758 22.7351L32.6689 54.0024C33.1183 54.4588 32.9015 55.234 32.2767 55.3525C31.2347 55.5502 30.1718 55.6874 29.0916 55.7606C28.861 55.7762 28.6358 55.6879 28.4723 55.5219L0.379351 26.9963ZM2.26904 34.6958C1.70801 34.1261 0.802638 34.617 1.0081 35.3951C3.51141 44.8758 10.8641 52.3417 20.2009 54.8835C20.9672 55.0922 21.4507 54.1728 20.8896 53.6031L2.26904 34.6958ZM109.614 15.824C111.562 15.824 113.141 14.2149 113.141 12.2301C113.141 10.2453 111.562 8.63622 109.614 8.63622C107.667 8.63622 106.088 10.2453 106.088 12.2301C106.088 14.2149 107.667 15.824 109.614 15.824ZM79.409 47.1665V8.63838H85.6759V41.5295H102.573V47.1665H79.409ZM124.014 31.445V47.1665H117.95V19.8607H123.938V24.5409L124.014 24.4892C124.622 23.0239 125.604 21.8 126.957 20.8174C128.31 19.8175 130.035 19.3176 132.133 19.3176C133.993 19.3176 135.684 19.74 137.207 20.5847C138.729 21.4121 139.947 22.6274 140.86 24.2306C141.774 25.8338 142.23 27.799 142.23 30.1262V47.1665H136.167V30.9795C136.167 28.9109 135.625 27.3422 134.543 26.2734C133.477 25.1874 132.048 24.6444 130.255 24.6444C129.105 24.6444 128.056 24.8857 127.109 25.3684C126.162 25.8511 125.409 26.5923 124.851 27.5921C124.293 28.592 124.014 29.8762 124.014 31.445ZM178.919 46.7011C180.306 47.3044 181.896 47.6061 183.689 47.6061C185.161 47.6061 186.421 47.4165 187.469 47.0372C188.518 46.6407 189.381 46.115 190.057 45.4599C190.751 44.8048 191.3 44.0894 191.707 43.3137H191.808V47.1665H197.618V28.3679C197.618 27.0405 197.364 25.8252 196.857 24.7219C196.35 23.6187 195.614 22.6619 194.649 21.8517C193.702 21.0415 192.552 20.4209 191.199 19.99C189.846 19.5417 188.323 19.3176 186.632 19.3176C184.315 19.3176 182.311 19.7228 180.619 20.533C178.944 21.326 177.634 22.3947 176.686 23.7394C175.739 25.0839 175.223 26.601 175.139 28.2903H181C181.067 27.4973 181.338 26.7905 181.812 26.17C182.285 25.5494 182.928 25.0667 183.74 24.7219C184.552 24.3599 185.49 24.1789 186.556 24.1789C187.622 24.1789 188.527 24.3599 189.271 24.7219C190.032 25.0839 190.616 25.5753 191.021 26.1958C191.428 26.8164 191.631 27.5404 191.631 28.3679V28.5748C191.631 29.1953 191.419 29.6521 190.996 29.9452C190.59 30.2382 189.897 30.4537 188.916 30.5916C187.951 30.7296 186.632 30.8933 184.958 31.083C183.587 31.2381 182.268 31.4708 181 31.7811C179.731 32.0914 178.598 32.5483 177.6 33.1516C176.619 33.7549 175.841 34.5565 175.266 35.5564C174.691 36.5562 174.403 37.8405 174.403 39.4091C174.403 41.2192 174.809 42.7362 175.621 43.9601C176.433 45.1669 177.532 46.0805 178.919 46.7011ZM188.738 42.1242C187.757 42.6586 186.548 42.9258 185.11 42.9258C183.655 42.9258 182.496 42.6155 181.634 41.995C180.771 41.3571 180.34 40.4866 180.34 39.3833C180.34 38.5214 180.577 37.8232 181.05 37.2888C181.541 36.7544 182.184 36.3321 182.979 36.0218C183.774 35.7115 184.636 35.496 185.566 35.3753C186.243 35.2719 186.903 35.1685 187.546 35.065C188.188 34.9444 188.789 34.8323 189.347 34.7289C189.905 34.6082 190.379 34.4875 190.768 34.3669C191.174 34.2462 191.47 34.1169 191.656 33.979V37.0303C191.656 38.099 191.411 39.0817 190.92 39.978C190.446 40.8572 189.719 41.5726 188.738 42.1242ZM202.909 47.1665V19.8607H208.744V24.3599H208.821C209.311 22.8085 210.08 21.6276 211.129 20.8174C212.195 19.99 213.59 19.5762 215.316 19.5762C215.739 19.5762 216.119 19.5934 216.457 19.628C216.813 19.6452 217.109 19.6624 217.345 19.6796V25.2391C217.126 25.2046 216.736 25.1615 216.178 25.1098C215.62 25.0581 215.028 25.0322 214.402 25.0322C213.404 25.0322 212.491 25.2649 211.662 25.7304C210.833 26.1958 210.173 26.9112 209.683 27.8766C209.209 28.8247 208.973 30.0228 208.973 31.4708V47.1665H202.909ZM106.57 47.1665V19.8607H112.634V47.1665H106.57ZM152.316 45.9512C154.261 47.1751 156.57 47.7871 159.243 47.7871C161.306 47.7871 163.184 47.4078 164.875 46.6493C166.584 45.8736 168.004 44.8134 169.138 43.4689C170.271 42.107 171.007 40.5383 171.345 38.7627H165.637C165.383 39.5729 164.968 40.2883 164.393 40.9089C163.835 41.5123 163.133 41.9863 162.288 42.3311C161.442 42.6759 160.461 42.8482 159.344 42.8482C157.839 42.8482 156.545 42.5035 155.463 41.8139C154.397 41.1244 153.585 40.1677 153.027 38.9437C152.52 37.8172 152.243 36.5415 152.197 35.1168H171.7V33.4618C171.7 31.3588 171.396 29.4453 170.787 27.7214C170.178 25.9803 169.315 24.4806 168.199 23.2222C167.083 21.9465 165.738 20.964 164.165 20.2744C162.609 19.5848 160.875 19.2401 158.964 19.2401C156.477 19.2401 154.279 19.8521 152.367 21.076C150.456 22.2999 148.959 23.9893 147.876 26.1441C146.794 28.2989 146.252 30.764 146.252 33.5394C146.252 36.2976 146.777 38.7541 147.825 40.9089C148.874 43.0465 150.371 44.7273 152.316 45.9512ZM165.078 27.8766C164.52 26.7044 163.725 25.7994 162.693 25.1615C161.661 24.5237 160.444 24.2048 159.04 24.2048C157.653 24.2048 156.443 24.5237 155.411 25.1615C154.397 25.7994 153.602 26.7044 153.027 27.8766C152.616 28.7255 152.357 29.6909 152.248 30.7727H165.857C165.748 29.6909 165.488 28.7255 165.078 27.8766Z" fill="#EDEDED"/>
</svg>
