<svg width="191" height="70" viewBox="0 0 191 70" fill="none" xmlns="http://www.w3.org/2000/svg">
<g clip-path="url(#clip0_713_2528)">
<path d="M86.9659 47.9906V29.1689H87.2886L100.472 47.9906H104.62V20.3506H100.011V39.125H99.688L86.505 20.3506H82.3564V47.9906H86.9659ZM117.665 48.4173C123.749 48.4173 127.483 44.3401 127.483 37.513C127.483 30.7334 123.749 26.6087 117.665 26.6087C111.626 26.6087 107.847 30.7334 107.847 37.513C107.893 44.3401 111.58 48.4173 117.665 48.4173ZM117.665 44.4349C114.438 44.4349 112.594 41.9222 112.594 37.513C112.594 33.1513 114.438 30.5912 117.665 30.5912C120.891 30.5912 122.735 33.1513 122.735 37.513C122.735 41.9222 120.891 44.4349 117.665 44.4349ZM131.678 21.9151V27.1777H128.451V30.9704H131.678V42.3963C131.678 46.4735 133.521 48.0855 138.223 48.0855C139.099 48.0855 139.975 47.9906 140.666 47.8484V44.1504C140.113 44.1978 139.744 44.2452 139.099 44.2452C137.163 44.2452 136.287 43.3444 136.287 41.2584V30.9704H140.666V27.1777H136.287V21.9151H131.678ZM143.432 47.9906H148.041V27.0354H143.432V47.9906ZM145.736 23.5745C147.258 23.5745 148.502 22.2944 148.502 20.7299C148.502 19.118 147.258 17.8379 145.736 17.8379C144.215 17.8379 142.971 19.118 142.971 20.7299C142.971 22.2944 144.215 23.5745 145.736 23.5745ZM160.671 48.4173C166.756 48.4173 170.489 44.3401 170.489 37.513C170.489 30.7334 166.756 26.6087 160.671 26.6087C154.633 26.6087 150.853 30.7334 150.853 37.513C150.853 44.3401 154.54 48.4173 160.671 48.4173ZM160.671 44.4349C157.444 44.4349 155.601 41.9222 155.601 37.513C155.601 33.1513 157.444 30.5912 160.671 30.5912C163.852 30.5912 165.741 33.1513 165.741 37.513C165.695 41.9222 163.852 44.4349 160.671 44.4349ZM173.209 47.9906H177.818V35.8063C177.818 32.7246 179.57 30.7808 182.289 30.7808C185.101 30.7808 186.392 32.3927 186.392 35.5692V47.9906H191.001V34.4314C191.001 29.4059 188.512 26.6087 183.995 26.6087C180.953 26.6087 178.924 28.031 177.956 30.4015H177.634V27.0354H173.163C173.209 27.0354 173.209 47.9906 173.209 47.9906Z" fill="#EDEDED"/>
<path fill-rule="evenodd" clip-rule="evenodd" d="M11.921 11.9395C14.0853 13.718 14.8681 13.5776 18.9203 13.2968L57.094 10.9566C57.9229 10.9566 57.2321 10.1142 56.9559 10.0206L50.6012 5.3871C49.404 4.45104 47.7463 3.32777 44.6611 3.60859L7.73065 6.36995C6.39526 6.51036 6.11897 7.2124 6.67155 7.72723L11.921 11.9395ZM14.2234 20.9724V61.7844C14.2234 63.9841 15.2825 64.7797 17.723 64.6393L59.6727 62.1588C62.1132 62.0184 62.3895 60.5207 62.3895 58.7422V18.211C62.3895 16.4325 61.6988 15.4497 60.2253 15.5901L16.3877 18.211C14.776 18.3514 14.2234 19.1939 14.2234 20.9724ZM55.6205 23.1721C55.8968 24.389 55.6205 25.6527 54.4232 25.7931L52.3971 26.2143V56.3553C50.6473 57.2913 49.0356 57.8529 47.6542 57.8529C45.4899 57.8529 44.9374 57.1509 43.3257 55.0916L30.1099 33.9836V54.3895L34.3003 55.3256C34.3003 55.3256 34.3003 57.8061 30.9388 57.8061L21.6371 58.3678C21.3608 57.8061 21.6371 56.4489 22.5581 56.168L24.9986 55.466V28.5076L21.6371 28.2268C21.3608 27.0099 22.0515 25.2314 23.9395 25.091L33.9319 24.389L47.7002 45.731V26.8695L44.2006 26.4483C43.9243 24.9506 45.0295 23.8274 46.3648 23.687L55.6205 23.1721ZM4.64544 2.62573L43.0954 -0.229234C47.7923 -0.650458 49.0356 -0.369641 51.9827 1.83009L64.2314 10.5822C66.2575 12.0799 66.9482 12.5011 66.9482 14.1392V62.2056C66.9482 65.201 65.8891 66.9795 62.1132 67.2603L17.4928 70.0216C14.6378 70.1621 13.3024 69.7408 11.8289 67.8219L2.75747 55.8872C1.1458 53.6875 0.455078 52.0494 0.455078 50.1305V7.39961C0.455078 4.91906 1.56023 2.90655 4.64544 2.62573Z" fill="#EDEDED"/>
</g>
<defs>
<clipPath id="clip0_713_2528">
<rect width="190.546" height="69.6531" fill="white" transform="translate(0.455078)"/>
</clipPath>
</defs>
</svg>
