<svg width="248" height="58" viewBox="0 0 248 58" fill="none" xmlns="http://www.w3.org/2000/svg">
<g clip-path="url(#clip0_713_2557)">
<path d="M56.648 29.2048C56.648 45.0267 43.9822 57.8545 28.3601 57.8545C12.738 57.8545 0.0722656 45.0267 0.0722656 29.2048C0.0722656 13.3829 12.738 0.555176 28.3601 0.555176C43.9855 0.555176 56.648 13.3829 56.648 29.2048Z" fill="#EDEDED"/>
<path d="M14.0287 30.1678L14.1507 29.9735L21.5095 18.3143C21.6171 18.1436 21.8699 18.1613 21.9513 18.3467C23.1807 21.1371 24.2415 24.6075 23.7445 26.768C23.5324 27.657 22.9511 28.8608 22.2971 29.9735C22.2129 30.1354 22.1199 30.2943 22.021 30.4474C21.9745 30.518 21.8961 30.5592 21.8118 30.5592H14.2437C14.0403 30.5592 13.9212 30.3355 14.0287 30.1678Z" fill="#1C1C1C"/>
<path d="M46.8289 32.3341V34.1796C46.8289 34.2856 46.765 34.3798 46.672 34.421C46.1024 34.6682 44.1522 35.5748 43.3414 36.7169C41.272 39.6339 39.691 43.8048 36.1569 43.8048H21.4132C16.1877 43.8048 11.9531 39.5015 11.9531 34.1914V34.0207C11.9531 33.8794 12.0664 33.7646 12.206 33.7646H20.4251C20.5878 33.7646 20.7069 33.9176 20.6924 34.0795C20.6343 34.6211 20.7331 35.1745 20.986 35.6778C21.4742 36.6816 22.4856 37.3086 23.5784 37.3086H27.6472V34.0913H23.6249C23.4185 34.0913 23.2965 33.8499 23.4157 33.6792C23.4592 33.6115 23.5087 33.5409 23.5609 33.4614C23.9417 32.9139 24.4852 32.0633 25.0257 31.0948C25.3948 30.4414 25.7523 29.7438 26.04 29.0432C26.0982 28.9167 26.1446 28.7871 26.1911 28.6605C26.2696 28.4368 26.351 28.2279 26.4091 28.0189C26.4673 27.8422 26.5137 27.6568 26.5602 27.4831C26.6969 26.8886 26.755 26.2587 26.755 25.6052C26.755 25.3492 26.7434 25.0813 26.7201 24.8252C26.7085 24.5456 26.6736 24.2659 26.6387 23.9863C26.6155 23.739 26.5719 23.4947 26.5254 23.2386C26.4673 22.8648 26.3859 22.494 26.2929 22.1201L26.2609 21.9789C26.1911 21.7227 26.133 21.4785 26.0517 21.2224C25.822 20.4188 25.5576 19.6358 25.2786 18.9029C25.1769 18.6115 25.0606 18.3319 24.9443 18.0523C24.7729 17.6313 24.5985 17.2487 24.4387 16.8866C24.3573 16.7218 24.2875 16.5716 24.2178 16.4186C24.1393 16.2449 24.058 16.0712 23.9765 15.9064C23.9184 15.7799 23.8516 15.6621 23.8051 15.5444L23.3081 14.6142C23.2383 14.4877 23.3546 14.3375 23.4912 14.3758L26.601 15.2294H26.6097C26.6155 15.2294 26.6184 15.2324 26.6213 15.2324L27.0311 15.3472L27.4816 15.4767L27.6472 15.5237V13.6517C27.6472 12.7481 28.3622 12.0151 29.2457 12.0151C29.6875 12.0151 30.0885 12.1976 30.3763 12.4949C30.664 12.7922 30.8442 13.1984 30.8442 13.6517V16.4304L31.1755 16.5245C31.2017 16.5334 31.2278 16.5452 31.2511 16.5628C31.3325 16.6246 31.4487 16.7159 31.5969 16.8278C31.7132 16.9219 31.8381 17.0367 31.9893 17.1545C32.2886 17.3988 32.6461 17.7137 33.0385 18.0758C33.1431 18.167 33.2448 18.2612 33.3378 18.3554C33.8435 18.8323 34.4102 19.3915 34.9508 20.0097C35.1019 20.1833 35.2502 20.3599 35.4013 20.5453C35.5524 20.7337 35.7123 20.9192 35.8517 21.1046C36.0349 21.3519 36.2325 21.608 36.404 21.8758C36.4853 22.0024 36.5783 22.1319 36.6568 22.2585C36.8777 22.5969 37.0724 22.9473 37.2584 23.2975C37.3369 23.4594 37.4183 23.636 37.488 23.8097C37.6944 24.2777 37.8571 24.7546 37.9617 25.2314C37.9937 25.3344 38.017 25.4463 38.0286 25.5464V25.5699C38.0635 25.7112 38.0751 25.8613 38.0867 26.0143C38.1332 26.503 38.11 26.9916 38.0054 27.4831C37.9617 27.6922 37.9036 27.8893 37.8339 28.0984C37.7641 28.2985 37.6944 28.5075 37.6043 28.7047C37.4299 29.1138 37.2235 29.523 36.9794 29.9057C36.9009 30.047 36.8079 30.1971 36.7149 30.3384C36.6132 30.4884 36.5086 30.6297 36.4156 30.7681C36.2877 30.9447 36.1511 31.1301 36.0116 31.295C35.8866 31.4687 35.7588 31.6423 35.6193 31.7954C35.4245 32.0279 35.2385 32.2487 35.0438 32.4606C34.9276 32.5989 34.8026 32.7402 34.6747 32.8668C34.5498 33.0081 34.4218 33.1346 34.3056 33.2524C34.1109 33.4496 33.9481 33.6027 33.8115 33.7292L33.4919 34.0266C33.4453 34.0678 33.3843 34.0913 33.3204 34.0913H30.8442V37.3086H33.9597C34.6573 37.3086 35.3199 37.0583 35.8547 36.5991C36.0378 36.4373 36.837 35.7367 37.7815 34.68C37.8135 34.6446 37.8542 34.6182 37.9007 34.6064L46.5063 32.0868C46.6662 32.0397 46.8289 32.1633 46.8289 32.3341Z" fill="#1C1C1C"/>
<path d="M84.2138 42.9545C81.6566 42.9545 79.3058 42.3741 77.1622 41.2133C75.044 40.0525 73.3518 38.4375 72.0862 36.3683C70.8466 34.2739 70.2266 31.9271 70.2266 29.328C70.2266 26.7288 70.8466 24.3946 72.0862 22.3254C73.3518 20.2562 75.044 18.6412 77.1622 17.4804C79.3058 16.3196 81.6566 15.7393 84.2138 15.7393C86.771 15.7393 89.1087 16.3196 91.2269 17.4804C93.3711 18.6412 95.0497 20.2562 96.2639 22.3254C97.504 24.3946 98.1235 26.7288 98.1235 29.328C98.1235 31.9271 97.504 34.2739 96.2639 36.3683C95.0243 38.4375 93.3451 40.0525 91.2269 41.2133C89.1087 42.3741 86.771 42.9545 84.2138 42.9545ZM84.2138 37.0496C86.3835 37.0496 88.1141 36.3431 89.4057 34.93C90.7234 33.5168 91.3819 31.6495 91.3819 29.328C91.3819 26.9812 90.7234 25.1138 89.4057 23.7259C88.1141 22.3128 86.3835 21.6063 84.2138 21.6063C82.0181 21.6063 80.262 22.3002 78.9443 23.688C77.6527 25.076 77.0072 26.9559 77.0072 29.328C77.0072 31.6747 77.6527 33.5547 78.9443 34.9678C80.262 36.3557 82.0181 37.0496 84.2138 37.0496Z" fill="#EDEDED"/>
<path d="M108.435 24.5587C109.081 23.5746 109.972 22.7797 111.108 22.1741C112.245 21.5685 113.575 21.2656 115.099 21.2656C116.881 21.2656 118.496 21.7072 119.943 22.5904C121.389 23.4737 122.525 24.7354 123.352 26.3756C124.205 28.0158 124.631 29.921 124.631 32.0912C124.631 34.2613 124.205 36.1792 123.352 37.8446C122.525 39.4849 121.389 40.7591 119.943 41.6676C118.496 42.5508 116.881 42.9924 115.099 42.9924C113.601 42.9924 112.271 42.6896 111.108 42.084C109.972 41.4784 109.081 40.6961 108.435 39.7372V48.9729H101.81V21.5685H108.435V24.5587ZM117.889 32.0912C117.889 30.4762 117.424 29.2145 116.494 28.3061C115.59 27.3724 114.466 26.9055 113.123 26.9055C111.806 26.9055 110.682 27.3724 109.752 28.3061C108.848 29.2397 108.396 30.514 108.396 32.129C108.396 33.744 108.848 35.0184 109.752 35.952C110.682 36.8857 111.806 37.3525 113.123 37.3525C114.441 37.3525 115.564 36.8857 116.494 35.952C117.424 34.9931 117.889 33.7062 117.889 32.0912Z" fill="#EDEDED"/>
<path d="M148.486 31.7884C148.486 32.394 148.448 33.0248 148.37 33.681H133.376C133.479 34.9931 133.905 36.0025 134.654 36.7091C135.429 37.3904 136.372 37.731 137.483 37.731C139.136 37.731 140.285 37.0497 140.931 35.6871H147.983C147.621 37.075 146.963 38.324 146.007 39.4344C145.077 40.5447 143.902 41.4153 142.481 42.0461C141.06 42.677 139.472 42.9924 137.716 42.9924C135.597 42.9924 133.712 42.5508 132.059 41.6676C130.405 40.7844 129.114 39.5227 128.184 37.8824C127.254 36.2422 126.789 34.3244 126.789 32.129C126.789 29.9336 127.241 28.0158 128.145 26.3756C129.075 24.7354 130.366 23.4737 132.019 22.5904C133.673 21.7072 135.571 21.2656 137.716 21.2656C139.808 21.2656 141.667 21.6946 143.294 22.5526C144.922 23.4106 146.188 24.6344 147.092 26.2242C148.022 27.814 148.486 29.6687 148.486 31.7884ZM141.706 30.085C141.706 28.9747 141.319 28.0915 140.544 27.4354C139.769 26.7794 138.8 26.4513 137.638 26.4513C136.527 26.4513 135.584 26.7668 134.809 27.3976C134.06 28.0284 133.595 28.9243 133.415 30.085H141.706Z" fill="#EDEDED"/>
<path d="M165.156 21.3413C167.687 21.3413 169.702 22.1488 171.2 23.7638C172.724 25.3535 173.486 27.5489 173.486 30.35V42.6896H166.899V31.2205C166.899 29.8074 166.525 28.7097 165.776 27.9275C165.027 27.1452 164.019 26.754 162.754 26.754C161.488 26.754 160.481 27.1452 159.732 27.9275C158.983 28.7097 158.608 29.8074 158.608 31.2205V42.6896H151.982V21.5684H158.608V24.3694C159.28 23.4357 160.184 22.7039 161.32 22.174C162.456 21.6189 163.735 21.3413 165.156 21.3413Z" fill="#EDEDED"/>
<path d="M187.932 42.9545C185.943 42.9545 184.161 42.6391 182.585 42.0082C181.009 41.3773 179.744 40.4437 178.788 39.2072C177.858 37.9707 177.367 36.4819 177.315 34.7407H184.367C184.471 35.7249 184.819 36.4819 185.414 37.0118C186.008 37.5165 186.782 37.7688 187.738 37.7688C188.72 37.7688 189.494 37.5543 190.063 37.1254C190.631 36.6712 190.916 36.0529 190.916 35.2707C190.916 34.6145 190.683 34.072 190.218 33.643C189.779 33.214 189.223 32.8608 188.552 32.5832C187.906 32.3056 186.976 31.9902 185.762 31.6369C184.006 31.1069 182.572 30.577 181.461 30.0471C180.351 29.5172 179.395 28.7349 178.594 27.7003C177.794 26.6657 177.393 25.3157 177.393 23.6502C177.393 21.1773 178.31 19.2468 180.144 17.8589C181.978 16.4458 184.367 15.7393 187.312 15.7393C190.309 15.7393 192.723 16.4458 194.557 17.8589C196.392 19.2468 197.373 21.1899 197.502 23.688H190.334C190.283 22.8301 189.96 22.1614 189.366 21.6819C188.771 21.1773 188.009 20.9249 187.079 20.9249C186.279 20.9249 185.633 21.1394 185.142 21.5684C184.652 21.9721 184.406 22.5652 184.406 23.3474C184.406 24.2053 184.819 24.8741 185.646 25.3535C186.473 25.833 187.764 26.3503 189.521 26.9055C191.277 27.4859 192.698 28.041 193.782 28.5709C194.894 29.1008 195.849 29.8705 196.65 30.8799C197.451 31.8892 197.851 33.1888 197.851 34.7786C197.851 36.2926 197.451 37.6679 196.65 38.9043C195.875 40.1409 194.739 41.125 193.24 41.8568C191.742 42.5886 189.973 42.9545 187.932 42.9545Z" fill="#EDEDED"/>
<path d="M222.309 31.7884C222.309 32.394 222.27 33.0248 222.193 33.681H207.198C207.301 34.9931 207.727 36.0025 208.476 36.7091C209.252 37.3904 210.195 37.731 211.305 37.731C212.958 37.731 214.108 37.0497 214.754 35.6871H221.805C221.444 37.075 220.785 38.324 219.83 39.4344C218.899 40.5447 217.724 41.4153 216.303 42.0461C214.883 42.677 213.294 42.9924 211.538 42.9924C209.42 42.9924 207.534 42.5508 205.881 41.6676C204.228 40.7844 202.936 39.5227 202.006 37.8824C201.076 36.2422 200.611 34.3244 200.611 32.129C200.611 29.9336 201.063 28.0158 201.967 26.3756C202.897 24.7354 204.189 23.4737 205.842 22.5904C207.495 21.7072 209.394 21.2656 211.538 21.2656C213.63 21.2656 215.49 21.6946 217.117 22.5526C218.744 23.4106 220.01 24.6344 220.914 26.2242C221.844 27.814 222.309 29.6687 222.309 31.7884ZM215.529 30.085C215.529 28.9747 215.141 28.0915 214.366 27.4354C213.591 26.7794 212.622 26.4513 211.46 26.4513C210.35 26.4513 209.407 26.7668 208.632 27.3976C207.882 28.0284 207.417 28.9243 207.237 30.085H215.529Z" fill="#EDEDED"/>
<path d="M224.486 32.0912C224.486 29.921 224.9 28.0158 225.726 26.3756C226.579 24.7354 227.728 23.4737 229.175 22.5904C230.621 21.7072 232.236 21.2656 234.018 21.2656C235.542 21.2656 236.872 21.5685 238.009 22.1741C239.171 22.7797 240.062 23.5746 240.682 24.5587V21.5685H247.308V42.6896H240.682V39.6993C240.037 40.6835 239.133 41.4784 237.97 42.084C236.833 42.6896 235.503 42.9924 233.979 42.9924C232.223 42.9924 230.621 42.5508 229.175 41.6676C227.728 40.7591 226.579 39.4849 225.726 37.8446C224.9 36.1792 224.486 34.2613 224.486 32.0912ZM240.682 32.129C240.682 30.514 240.217 29.2397 239.288 28.3061C238.384 27.3724 237.272 26.9055 235.955 26.9055C234.638 26.9055 233.514 27.3724 232.585 28.3061C231.681 29.2145 231.228 30.4762 231.228 32.0912C231.228 33.7062 231.681 34.9931 232.585 35.952C233.514 36.8857 234.638 37.3525 235.955 37.3525C237.272 37.3525 238.384 36.8857 239.288 35.952C240.217 35.0184 240.682 33.744 240.682 32.129Z" fill="#EDEDED"/>
</g>
<defs>
<clipPath id="clip0_713_2557">
<rect width="247.236" height="57.2993" fill="white" transform="translate(0.0722656 0.555176)"/>
</clipPath>
</defs>
</svg>
