<svg width="191" height="70" viewBox="0 0 191 70" fill="none" xmlns="http://www.w3.org/2000/svg">
<g clip-path="url(#clip0_713_2523)">
<path d="M51.8996 14.9226C51.8762 14.7749 51.8049 14.6392 51.6969 14.537C51.589 14.4347 51.4505 14.3716 51.3032 14.3577C51.0651 14.3192 45.8346 13.9528 45.8346 13.9528L41.8464 9.91749C41.4882 9.51261 40.6917 9.63214 40.3907 9.71698C40.3525 9.71698 39.5942 9.95798 38.3575 10.3648C37.1533 6.84422 35.023 3.61286 31.273 3.61286H30.9529C29.8763 2.20541 28.5615 1.55566 27.4468 1.55566C18.7122 1.59422 14.5469 12.6186 13.2321 18.2523L7.127 20.1476C5.25393 20.751 5.18343 20.7954 4.93572 22.6019L-0.210938 62.7684L38.3709 70.0756L59.2814 65.5139C59.2814 65.4753 51.9397 15.3082 51.9016 14.9265L51.8996 14.9226ZM36.2177 11.0435C35.2459 11.3674 34.1217 11.6913 32.9479 12.0557V11.3288C32.986 9.5126 32.7135 7.70412 32.1514 5.97662C34.1064 6.28124 35.4212 8.50232 36.2177 11.0435ZM29.7963 6.4432C30.4346 8.34615 30.749 10.3513 30.669 12.3622V12.7247L23.9236 14.8455C25.2441 9.85772 27.6774 7.39178 29.7925 6.46441L29.7963 6.4432ZM27.2049 3.98883C27.605 3.99847 27.9918 4.12379 28.3215 4.35129C25.5071 5.67777 22.5327 9.02482 21.256 15.7266L15.9207 17.3809C17.426 12.2947 20.9378 3.97726 27.201 3.97726L27.2049 3.98883Z" fill="#EDEDED"/>
<path d="M51.3056 14.3556C51.0674 14.317 45.8369 13.9507 45.8369 13.9507L41.8488 9.91532C41.702 9.76108 41.502 9.67624 41.2905 9.67432L38.3789 70.0676L59.2895 65.5059L51.9039 14.9571C51.8543 14.6486 51.6143 14.4018 51.3075 14.3536L51.3056 14.3556Z" fill="#EDEDED"/>
<path d="M31.2711 26.0623L28.6759 33.813C27.1077 33.0418 25.3909 32.6311 23.6493 32.5983C19.5773 32.5983 19.381 35.1819 19.381 35.8297C19.381 39.358 28.5177 40.7153 28.5177 49.0328C28.5177 55.5726 24.4076 59.7718 18.9009 59.7718C12.2775 59.7718 8.88574 55.6131 8.88574 55.6131L10.6464 49.6748C10.6464 49.6748 14.1143 52.7018 17.0716 52.7018C17.4251 52.7159 17.7777 52.6572 18.1081 52.5292C18.4384 52.4012 18.7396 52.2067 18.9934 51.9573C19.2471 51.7079 19.4482 51.409 19.5842 51.0786C19.7203 50.7482 19.7886 50.3933 19.785 50.0353C19.785 45.3888 12.2832 45.1883 12.2832 37.5996C12.2832 31.2179 16.8296 25 25.9682 25C29.56 25.054 31.2768 26.0604 31.2768 26.0604L31.2711 26.0623Z" fill="#0F0F0F"/>
<path d="M77.4372 37.6076C75.9452 36.7978 75.1735 36.0979 75.1735 35.1397C75.1735 33.9251 76.2215 33.1403 77.9231 33.1403C79.1861 33.1681 80.4319 33.4437 81.5911 33.952L82.9668 29.722C82.9668 29.722 81.7054 28.7348 78.0088 28.7348C72.8526 28.7348 69.2704 31.7233 69.2704 35.9225C69.2704 38.2978 70.9319 40.1256 73.1651 41.4289C74.9696 42.4893 75.6041 43.1911 75.6041 44.2978C75.6041 45.4045 74.7162 46.328 73.026 46.328C70.5356 46.328 68.1861 45.0247 68.1861 45.0247L66.7266 49.2547C66.7266 49.2547 68.9045 50.7316 72.542 50.7316C77.8392 50.7316 81.6501 48.0941 81.6501 43.328C81.6787 40.7483 79.758 38.9514 77.4581 37.5883L77.4372 37.6076ZM98.5764 28.7098C95.9697 28.7098 93.908 29.9572 92.3303 31.8833L92.2426 31.8544L94.5063 19.8698H88.6089L82.8792 50.3904H88.7804L90.7563 39.9559C91.53 36.015 93.544 33.578 95.4247 33.578C96.7395 33.578 97.2578 34.4765 97.2578 35.7817C97.2578 36.6686 97.1701 37.5497 97.0005 38.4193L94.7673 50.3614H100.669L102.989 38.0221C103.243 36.7438 103.39 35.4463 103.418 34.1468C103.39 30.7843 101.642 28.756 98.5783 28.756L98.5764 28.7098ZM116.735 28.7098C109.632 28.7098 104.933 35.2033 104.933 42.3987C104.933 47.0375 107.768 50.747 113.069 50.747C120.038 50.747 124.757 44.427 124.757 37.0581C124.757 32.7682 122.267 28.7098 116.745 28.7098H116.735ZM113.839 46.1873C111.833 46.1873 110.975 44.452 110.975 42.3119C110.975 38.8916 112.717 33.2984 115.933 33.2984C118.024 33.2984 118.721 35.1243 118.721 36.8942C118.713 40.5671 116.968 46.1873 113.843 46.1873H113.839ZM139.849 28.7098C135.847 28.7098 133.603 32.2342 133.603 32.2342H133.515L133.864 29.0607H128.637L127.436 36.9752L123.34 58.8312H129.214L130.849 49.9893H130.964C130.964 49.9893 132.164 50.7721 134.431 50.7721C141.364 50.7721 145.889 43.5844 145.889 36.3197C145.918 32.319 144.147 28.7271 139.845 28.7271L139.849 28.7098ZM134.205 46.274C133.314 46.292 132.448 45.9823 131.766 45.4026L132.741 39.8074C133.439 36.096 135.348 33.6031 137.41 33.6031C139.214 33.6031 139.757 35.2843 139.757 36.8807C139.767 40.7695 137.509 46.2759 134.212 46.2759L134.205 46.274ZM154.345 20.1301C153.442 20.1243 152.573 20.4867 151.939 21.1365C151.304 21.7862 150.952 22.6673 150.986 23.5812C150.986 25.3434 152.105 26.5697 153.774 26.5697H153.861C154.317 26.588 154.771 26.5116 155.196 26.3454C155.621 26.1792 156.008 25.9266 156.333 25.6032C156.658 25.2798 156.913 24.8924 157.084 24.4651C157.256 24.0377 157.338 23.5795 157.327 23.1185C157.327 21.3833 156.18 20.1301 154.374 20.1301H154.345ZM146.102 50.3325H152.004L156.013 29.1821H150.091M171.051 29.1532H166.929L167.131 28.1661C167.48 26.1359 168.678 24.31 170.614 24.31C171.256 24.3103 171.894 24.4077 172.506 24.5992L173.646 19.9276C173.646 19.9276 172.598 19.4071 170.437 19.4071C168.334 19.3541 166.282 20.0632 164.65 21.4064C162.644 23.1416 161.697 25.6365 161.22 28.1603L161.03 29.1474H158.28L157.419 33.6397H160.169L157.032 50.3364H162.954L166.091 33.6397H170.161L170.961 29.1474L171.051 29.1532ZM185.262 29.1821L179.903 43.7329H179.816L178.356 29.1821H172.137L175.69 48.6011C175.776 48.9331 175.735 49.2854 175.576 49.5883C174.804 51.0285 173.705 52.2605 172.367 53.184C171.342 53.8974 170.224 54.4643 169.044 54.8653L170.679 59.936C172.841 59.3505 174.825 58.2316 176.455 56.6795C179.147 54.1268 181.637 50.186 184.191 44.8222L191.409 29.1706H185.26L185.262 29.1821Z" fill="#EDEDED"/>
</g>
<defs>
<clipPath id="clip0_713_2523">
<rect width="190.546" height="68.6857" fill="white" transform="translate(0.31543 0.869141)"/>
</clipPath>
</defs>
</svg>
