<?xml version="1.0" encoding="UTF-8"?><svg xmlns="http://www.w3.org/2000/svg" xmlns:xlink="http://www.w3.org/1999/xlink" viewBox="0 0 89 45"><defs><style>.e{fill:url(#d);}.f{fill:none;stroke:#818181;}</style><linearGradient id="d" x1="-193" y1="127.91" x2="-106" y2="127.91" gradientTransform="translate(194 150.41) scale(1 -1)" gradientUnits="userSpaceOnUse"><stop offset="0" stop-color="#0d0d0d"/><stop offset=".51" stop-color="#1f1f1f"/><stop offset="1" stop-color="#0d0d0d"/></linearGradient></defs><g id="a"/><g id="b"><g id="c"><path class="e" d="M22.5,1h44c11.87,0,21.5,9.63,21.5,21.5h0c0,11.87-9.63,21.5-21.5,21.5H22.5C10.63,44,1,34.37,1,22.5h0C1,10.63,10.63,1,22.5,1Z"/><path class="f" d="M22.5,.5h44c12.15,0,22,9.85,22,22h0c0,12.15-9.85,22-22,22H22.5C10.35,44.5,.5,34.65,.5,22.5H.5C.5,10.35,10.35,.5,22.5,.5Z"/></g></g></svg>