<?xml version="1.0" encoding="UTF-8"?>
<svg width="700pt" height="700pt" version="1.1" viewBox="0 0 700 700" xmlns="http://www.w3.org/2000/svg">
 <path d="m350 472.5c-53.965-0.03125-104.16-27.688-133.01-73.289-28.852-45.605-32.348-102.81-9.2617-151.59l-85.227-30.273v237.65c0 6.2539-3.3359 12.031-8.75 15.156s-12.086 3.125-17.5 0-8.75-8.9023-8.75-15.156v-262.5c0.007812-4.2539 1.5625-8.3594 4.375-11.551 0.78906-0.90234 1.668-1.7266 2.625-2.4492 1.4922-1.2148 3.2227-2.1094 5.0742-2.625l245-87.5c3.8438-1.3906 8.0547-1.3906 11.902 0l245 87.5c4.5312 1.6445 8.1836 5.0859 10.094 9.5156 1.9102 4.4258 1.9102 9.4453 0 13.871-1.9102 4.4258-5.5625 7.8672-10.094 9.5117l-108.68 38.676c23.207 48.879 19.699 106.25-9.293 151.93-28.988 45.688-79.398 73.297-133.51 73.117zm-109.2-212.98c-19.305 37.977-17.496 83.254 4.7812 119.57 22.273 36.312 61.816 58.445 104.42 58.445s82.145-22.133 104.42-58.445c22.277-36.316 24.086-81.594 4.7812-119.57l-103.25 36.926c-3.8438 1.3906-8.0547 1.3906-11.898 0zm-83.301-67.023 192.5 68.949 192.5-68.949-192.5-68.949z"/>
</svg>
