<svg width="2304" height="70" viewBox="0 0 2304 70" fill="none" xmlns="http://www.w3.org/2000/svg">
<path d="M85.1408 35.6951C85.1408 45.0947 77.7925 52.0212 68.7745 52.0212C59.7565 52.0212 52.4082 45.0947 52.4082 35.6951C52.4082 26.2293 59.7565 19.3691 68.7745 19.3691C77.7925 19.3691 85.1408 26.2293 85.1408 35.6951ZM77.9764 35.6951C77.9764 29.8213 73.7175 25.8024 68.7745 25.8024C63.8315 25.8024 59.5726 29.8213 59.5726 35.6951C59.5726 41.5101 63.8315 45.5879 68.7745 45.5879C73.7175 45.5879 77.9764 41.5027 77.9764 35.6951Z" fill="#EDEDED"/>
<path d="M120.449 35.6951C120.449 45.0947 113.101 52.0212 104.083 52.0212C95.0651 52.0212 87.7168 45.0947 87.7168 35.6951C87.7168 26.2367 95.0651 19.3691 104.083 19.3691C113.101 19.3691 120.449 26.2293 120.449 35.6951ZM113.285 35.6951C113.285 29.8213 109.026 25.8024 104.083 25.8024C99.1401 25.8024 94.8812 29.8213 94.8812 35.6951C94.8812 41.5101 99.1401 45.5879 104.083 45.5879C109.026 45.5879 113.285 41.5027 113.285 35.6951Z" fill="#EDEDED"/>
<path d="M154.284 20.3555V49.6657C154.284 61.7225 147.178 66.6468 138.778 66.6468C130.871 66.6468 126.112 61.3545 124.317 57.0264L130.555 54.4281C131.665 57.0853 134.387 60.221 138.771 60.221C144.148 60.221 147.48 56.9013 147.48 50.6521V48.304H147.23C145.626 50.284 142.537 52.0138 138.639 52.0138C130.481 52.0138 123.008 44.9034 123.008 35.754C123.008 26.5384 130.481 19.3691 138.639 19.3691C142.53 19.3691 145.619 21.0989 147.23 23.02H147.48V20.3628H154.284V20.3555ZM147.988 35.754C147.988 30.0053 144.155 25.8024 139.279 25.8024C134.336 25.8024 130.194 30.0053 130.194 35.754C130.194 41.4438 134.336 45.5879 139.279 45.5879C144.155 45.5879 147.988 41.4438 147.988 35.754Z" fill="#EDEDED"/>
<path d="M165.502 3.1756V51.0201H158.514V3.1756H165.502Z" fill="#EDEDED"/>
<path d="M192.732 41.0684L198.293 44.7782C196.498 47.4354 192.173 52.0138 184.7 52.0138C175.431 52.0138 168.51 44.8445 168.51 35.6878C168.51 25.979 175.49 19.3618 183.898 19.3618C192.364 19.3618 196.505 26.1041 197.859 29.7477L198.602 31.6026L176.792 40.6415C178.462 43.917 181.059 45.5879 184.7 45.5879C188.348 45.5879 190.878 43.7919 192.732 41.0684ZM175.615 35.1946L190.194 29.1367C189.392 27.0978 186.98 25.6772 184.141 25.6772C180.499 25.6772 175.431 28.8938 175.615 35.1946Z" fill="#EDEDED"/>
<path d="M25.9589 31.448V24.5216H49.2836C49.5117 25.7288 49.6294 27.1567 49.6294 28.7025C49.6294 33.8991 48.2097 40.325 43.6345 44.9033C39.1843 49.5406 33.4984 52.0138 25.9663 52.0138C12.0052 52.0138 0.265625 40.6341 0.265625 26.6636C0.265625 12.693 12.0052 1.31335 25.9663 1.31335C33.6897 1.31335 39.1917 4.34596 43.3256 8.29865L38.4414 13.1861C35.4771 10.4038 31.4609 8.23976 25.9589 8.23976C15.764 8.23976 7.79045 16.4616 7.79045 26.6636C7.79045 36.8655 15.764 45.0874 25.9589 45.0874C32.5716 45.0874 36.3377 42.4302 38.7504 40.0158C40.707 38.0579 41.9942 35.2608 42.5017 31.4407L25.9589 31.448Z" fill="#EDEDED"/>
<g clip-path="url(#clip0_1445_58)">
<path fill-rule="evenodd" clip-rule="evenodd" d="M327.094 16.283C326.807 16.6032 326.826 17.0944 327.128 17.4005L364.379 55.225C364.68 55.531 365.164 55.5503 365.479 55.259C370.941 50.2123 374.37 42.9359 374.37 34.8466C374.37 19.6085 362.204 7.25555 347.197 7.25555C339.23 7.25555 332.064 10.7369 327.094 16.283ZM322.439 23.4615C322.301 23.7697 322.37 24.131 322.606 24.3703L357.515 59.8165C357.75 60.0557 358.106 60.1262 358.41 59.9865C359.216 59.615 360.001 59.2048 360.763 58.7581C361.216 58.4926 361.286 57.8651 360.916 57.4895L324.898 20.9166C324.528 20.541 323.91 20.6115 323.648 21.0714C323.208 21.8452 322.804 22.6426 322.439 23.4615ZM320.321 33.6113C320.157 33.4453 320.07 33.2165 320.086 32.9824C320.158 31.8855 320.293 30.8063 320.488 29.7483C320.604 29.1139 321.368 28.8937 321.817 29.35L352.61 60.6174C353.06 61.0737 352.843 61.8489 352.218 61.9674C351.176 62.1651 350.113 62.3023 349.033 62.3755C348.802 62.3911 348.577 62.3028 348.414 62.1369L320.321 33.6113ZM322.21 41.3107C321.649 40.741 320.744 41.2319 320.95 42.0101C323.453 51.4907 330.805 58.9566 340.142 61.4984C340.909 61.7071 341.392 60.7878 340.831 60.2181L322.21 41.3107ZM429.556 22.4389C431.504 22.4389 433.082 20.8299 433.082 18.845C433.082 16.8602 431.504 15.2512 429.556 15.2512C427.608 15.2512 426.03 16.8602 426.03 18.845C426.03 20.8299 427.608 22.4389 429.556 22.4389ZM399.35 53.7815V15.2533H405.617V48.1444H422.515V53.7815H399.35ZM443.955 38.0599V53.7815H437.891V26.4756H443.879V31.1558L443.955 31.1042C444.564 29.6389 445.545 28.4149 446.898 27.4323C448.251 26.4325 449.976 25.9326 452.074 25.9326C453.935 25.9326 455.626 26.3549 457.149 27.1996C458.671 28.0271 459.888 29.2424 460.802 30.8456C461.715 32.4488 462.172 34.414 462.172 36.7411V53.7815H456.108V37.5944C456.108 35.5258 455.567 33.9571 454.484 32.8883C453.419 31.8023 451.989 31.2593 450.196 31.2593C449.046 31.2593 447.997 31.5006 447.05 31.9833C446.103 32.466 445.351 33.2072 444.792 34.2071C444.234 35.2069 443.955 36.4912 443.955 38.0599ZM498.861 53.316C500.248 53.9194 501.838 54.221 503.63 54.221C505.102 54.221 506.362 54.0314 507.411 53.6521C508.46 53.2557 509.322 52.7299 509.999 52.0748C510.692 51.4198 511.242 50.7044 511.648 49.9286H511.75V53.7815H517.56V34.9828C517.56 33.6554 517.306 32.4401 516.798 31.3369C516.291 30.2336 515.555 29.2769 514.591 28.4667C513.644 27.6564 512.494 27.0358 511.14 26.6049C509.788 26.1567 508.265 25.9326 506.574 25.9326C504.257 25.9326 502.252 26.3377 500.56 27.1479C498.886 27.9409 497.575 29.0097 496.628 30.3543C495.681 31.6989 495.165 33.2159 495.08 34.9052H500.941C501.008 34.1123 501.279 33.4055 501.753 32.7849C502.227 32.1643 502.87 31.6816 503.681 31.3369C504.493 30.9749 505.432 30.7938 506.498 30.7938C507.563 30.7938 508.468 30.9749 509.212 31.3369C509.973 31.6989 510.557 32.1902 510.963 32.8108C511.369 33.4313 511.572 34.1553 511.572 34.9828V35.1897C511.572 35.8103 511.36 36.2671 510.938 36.5601C510.532 36.8532 509.838 37.0687 508.857 37.2066C507.893 37.3445 506.574 37.5083 504.899 37.6979C503.529 37.853 502.21 38.0858 500.941 38.396C499.673 38.7063 498.539 39.1632 497.541 39.7665C496.56 40.3699 495.782 41.1715 495.207 42.1713C494.632 43.1711 494.345 44.4554 494.345 46.0241C494.345 47.8342 494.75 49.3511 495.562 50.5751C496.374 51.7818 497.474 52.6954 498.861 53.316ZM508.68 48.7392C507.698 49.2735 506.489 49.5408 505.052 49.5408C503.597 49.5408 502.438 49.2305 501.575 48.6099C500.713 47.9721 500.281 47.1015 500.281 45.9983C500.281 45.1363 500.518 44.4381 500.992 43.9037C501.483 43.3694 502.125 42.947 502.92 42.6367C503.715 42.3264 504.577 42.111 505.508 41.9903C506.184 41.8869 506.844 41.7834 507.487 41.68C508.13 41.5593 508.73 41.4473 509.288 41.3438C509.847 41.2232 510.32 41.1025 510.709 40.9818C511.115 40.8612 511.411 40.7319 511.597 40.594V43.6452C511.597 44.7139 511.352 45.6966 510.861 46.593C510.388 47.4722 509.66 48.1875 508.68 48.7392ZM522.85 53.7815V26.4756H528.685V30.9749H528.762C529.252 29.4234 530.022 28.2426 531.07 27.4323C532.136 26.6049 533.532 26.1912 535.257 26.1912C535.68 26.1912 536.061 26.2084 536.398 26.2429C536.754 26.2601 537.05 26.2774 537.287 26.2946V31.854C537.067 31.8195 536.678 31.7765 536.12 31.7247C535.562 31.673 534.97 31.6472 534.343 31.6472C533.345 31.6472 532.432 31.8799 531.603 32.3453C530.775 32.8108 530.115 33.5262 529.624 34.4915C529.151 35.4397 528.914 36.6377 528.914 38.0858V53.7815H522.85ZM426.511 53.7815V26.4756H432.575V53.7815H426.511ZM472.257 52.5661C474.203 53.7901 476.512 54.402 479.184 54.402C481.248 54.402 483.125 54.0228 484.817 53.2643C486.525 52.4885 487.946 51.4284 489.079 50.0838C490.213 48.7219 490.948 47.1532 491.287 45.3776H485.578C485.324 46.1878 484.91 46.9033 484.334 47.5238C483.777 48.1272 483.075 48.6012 482.229 48.946C481.383 49.2908 480.402 49.4632 479.286 49.4632C477.78 49.4632 476.486 49.1184 475.404 48.4289C474.338 47.7393 473.527 46.7826 472.968 45.5587C472.462 44.4321 472.185 43.1565 472.138 41.7317H491.642V40.0768C491.642 37.9737 491.337 36.0602 490.728 34.3364C490.12 32.5953 489.257 31.0955 488.14 29.8371C487.024 28.5615 485.68 27.5789 484.106 26.8893C482.55 26.1998 480.817 25.855 478.905 25.855C476.419 25.855 474.22 26.467 472.308 27.6909C470.397 28.9149 468.9 30.6042 467.817 32.759C466.735 34.9139 466.194 37.3789 466.194 40.1544C466.194 42.9125 466.718 45.369 467.767 47.5238C468.816 49.6614 470.313 51.3422 472.257 52.5661ZM485.02 34.4915C484.462 33.3193 483.667 32.4143 482.635 31.7765C481.603 31.1386 480.385 30.8197 478.981 30.8197C477.594 30.8197 476.385 31.1386 475.353 31.7765C474.338 32.4143 473.543 33.3193 472.968 34.4915C472.558 35.3405 472.298 36.3058 472.19 37.3876H485.798C485.689 36.3058 485.43 35.3405 485.02 34.4915Z" fill="#EDEDED"/>
</g>
<g clip-path="url(#clip1_1445_58)">
<path d="M708.882 14.5373C708.859 14.3896 708.787 14.2539 708.679 14.1516C708.571 14.0494 708.433 13.9863 708.286 13.9724C708.047 13.9338 702.817 13.5675 702.817 13.5675L698.829 9.53218C698.471 9.12729 697.674 9.24683 697.373 9.33166C697.335 9.33166 696.577 9.57266 695.34 9.97947C694.136 6.45891 692.005 3.22755 688.255 3.22755H687.935C686.859 1.82009 685.544 1.17035 684.429 1.17035C675.695 1.20891 671.529 12.2333 670.215 17.867L664.109 19.7623C662.236 20.3657 662.166 20.4101 661.918 22.2166L656.771 62.3831L695.353 69.6903L716.264 65.1286C716.264 65.09 708.922 14.9229 708.884 14.5412L708.882 14.5373ZM693.2 10.6581C692.228 10.982 691.104 11.306 689.93 11.6704V10.9435C689.968 9.12729 689.696 7.31881 689.134 5.5913C691.089 5.89593 692.404 8.11701 693.2 10.6581ZM686.779 6.05788C687.417 7.96084 687.731 9.96598 687.651 11.9769V12.3394L680.906 14.4602C682.227 9.47241 684.66 7.00647 686.775 6.07909L686.779 6.05788ZM684.187 3.60351C684.587 3.61315 684.974 3.73847 685.304 3.96598C682.49 5.29246 679.515 8.6395 678.238 15.3413L672.903 16.9955C674.408 11.9094 677.92 3.59194 684.183 3.59194L684.187 3.60351Z" fill="#EDEDED"/>
<path d="M708.288 13.9701C708.05 13.9316 702.819 13.5652 702.819 13.5652L698.831 9.52988C698.684 9.37564 698.484 9.29081 698.273 9.28888L695.361 69.6822L716.272 65.1205L708.886 14.5717C708.837 14.2632 708.597 14.0164 708.29 13.9682L708.288 13.9701Z" fill="#EDEDED"/>
<path d="M688.253 25.6769L685.657 33.4275C684.089 32.6563 682.372 32.2457 680.631 32.2129C676.559 32.2129 676.362 34.7964 676.362 35.4443C676.362 38.9725 685.499 40.3299 685.499 48.6473C685.499 55.1872 681.389 59.3864 675.882 59.3864C669.259 59.3864 665.867 55.2277 665.867 55.2277L667.628 49.2894C667.628 49.2894 671.096 52.3164 674.053 52.3164C674.407 52.3305 674.759 52.2718 675.089 52.1438C675.42 52.0158 675.721 51.8212 675.975 51.5719C676.229 51.3225 676.43 51.0235 676.566 50.6931C676.702 50.3628 676.77 50.0078 676.766 49.6499C676.766 45.0034 669.265 44.8029 669.265 37.2142C669.265 30.8324 673.811 24.6146 682.95 24.6146C686.541 24.6685 688.258 25.675 688.258 25.675L688.253 25.6769Z" fill="#0F0F0F"/>
<path d="M734.418 37.2223C732.926 36.4125 732.154 35.7127 732.154 34.7544C732.154 33.5398 733.202 32.7551 734.904 32.7551C736.167 32.7828 737.412 33.0585 738.572 33.5668L739.947 29.3367C739.947 29.3367 738.686 28.3496 734.989 28.3496C729.833 28.3496 726.251 31.338 726.251 35.5372C726.251 37.9125 727.912 39.7403 730.146 41.0437C731.95 42.1041 732.585 42.8059 732.585 43.9126C732.585 45.0192 731.697 45.9428 730.006 45.9428C727.516 45.9428 725.167 44.6394 725.167 44.6394L723.707 48.8695C723.707 48.8695 725.885 50.3464 729.522 50.3464C734.82 50.3464 738.631 47.7088 738.631 42.9428C738.659 40.3631 736.738 38.5661 734.439 37.203L734.418 37.2223ZM755.557 28.3245C752.95 28.3245 750.888 29.5719 749.311 31.498L749.223 31.4691L751.487 19.4845H745.589L739.86 50.0051H745.761L747.737 39.5706C748.51 35.6298 750.525 33.1928 752.405 33.1928C753.72 33.1928 754.238 34.0912 754.238 35.3965C754.238 36.2834 754.151 37.1645 753.981 38.034L751.748 49.9762H757.649L759.97 37.6368C760.223 36.3586 760.37 35.061 760.399 33.7615C760.37 30.3991 758.623 28.3708 755.559 28.3708L755.557 28.3245ZM773.716 28.3245C766.612 28.3245 761.913 34.8181 761.913 42.0134C761.913 46.6523 764.749 50.3618 770.05 50.3618C777.018 50.3618 781.738 44.0417 781.738 36.6728C781.738 32.383 779.247 28.3245 773.725 28.3245H773.716ZM770.82 45.802C768.813 45.802 767.956 44.0668 767.956 41.9267C767.956 38.5064 769.697 32.9132 772.914 32.9132C775.004 32.9132 775.701 34.739 775.701 36.5089C775.694 40.1818 773.948 45.802 770.823 45.802H770.82ZM796.829 28.3245C792.828 28.3245 790.583 31.8489 790.583 31.8489H790.495L790.844 28.6754H785.617L784.417 36.5899L780.32 58.446H786.195L787.83 49.6041H787.944C787.944 49.6041 789.144 50.3868 791.412 50.3868C798.344 50.3868 802.869 43.1992 802.869 35.9344C802.898 31.9338 801.128 28.3419 796.825 28.3419L796.829 28.3245ZM791.185 45.8888C790.295 45.9067 789.428 45.597 788.746 45.0173L789.722 39.4222C790.419 35.7107 792.328 33.2178 794.39 33.2178C796.195 33.2178 796.738 34.8991 796.738 36.4955C796.747 40.3843 794.489 45.8907 791.193 45.8907L791.185 45.8888ZM811.326 19.7448C810.423 19.739 809.554 20.1015 808.919 20.7512C808.285 21.401 807.932 22.2821 807.967 23.196C807.967 24.9582 809.085 26.1844 810.754 26.1844H810.842C811.297 26.2027 811.751 26.1264 812.176 25.9602C812.602 25.7939 812.988 25.5413 813.313 25.2179C813.638 24.8945 813.894 24.5072 814.065 24.0798C814.236 23.6525 814.319 23.1942 814.308 22.7332C814.308 20.998 813.161 19.7448 811.354 19.7448H811.326ZM803.083 49.9473H808.984L812.993 28.7969H807.071M828.031 28.7679H823.91L824.112 27.7808C824.46 25.7506 825.659 23.9248 827.595 23.9248C828.236 23.925 828.874 24.0225 829.487 24.214L830.626 19.5424C830.626 19.5424 829.578 19.0218 827.418 19.0218C825.315 18.9689 823.262 19.678 821.631 21.0212C819.624 22.7564 818.677 25.2512 818.201 27.775L818.01 28.7622H815.261L814.399 33.2545H817.149L814.013 49.9511H819.935L823.071 33.2545H827.141L827.942 28.7622L828.031 28.7679ZM842.242 28.7969L836.884 43.3476H836.796L835.337 28.7969H829.117L832.671 48.2159C832.756 48.5478 832.716 48.9001 832.557 49.203C831.785 50.6433 830.685 51.8753 829.348 52.7988C828.323 53.5122 827.204 54.079 826.025 54.48L827.66 59.5507C829.821 58.9653 831.806 57.8464 833.435 56.2943C836.127 53.7416 838.618 49.8007 841.171 44.437L848.389 28.7853H842.24L842.242 28.7969Z" fill="#EDEDED"/>
</g>
<g clip-path="url(#clip2_1445_58)">
<path d="M1054.35 47.9907V29.169H1054.68L1067.86 47.9907H1072.01V20.3507H1067.4V39.1251H1067.08L1053.89 20.3507H1049.74V47.9907H1054.35ZM1085.05 48.4174C1091.14 48.4174 1094.87 44.3402 1094.87 37.5131C1094.87 30.7335 1091.14 26.6089 1085.05 26.6089C1079.01 26.6089 1075.23 30.7335 1075.23 37.5131C1075.28 44.3402 1078.97 48.4174 1085.05 48.4174ZM1085.05 44.435C1081.83 44.435 1079.98 41.9223 1079.98 37.5131C1079.98 33.1514 1081.83 30.5913 1085.05 30.5913C1088.28 30.5913 1090.12 33.1514 1090.12 37.5131C1090.12 41.9223 1088.28 44.435 1085.05 44.435ZM1099.07 21.9153V27.1778H1095.84V30.9706H1099.07V42.3964C1099.07 46.4736 1100.91 48.0856 1105.61 48.0856C1106.49 48.0856 1107.36 47.9908 1108.05 47.8485V44.1505C1107.5 44.198 1107.13 44.2454 1106.49 44.2454C1104.55 44.2454 1103.67 43.3446 1103.67 41.2585V30.9706H1108.05V27.1778H1103.67V21.9153H1099.07ZM1110.82 47.9907H1115.43V27.0355H1110.82V47.9907ZM1113.12 23.5746C1114.65 23.5746 1115.89 22.2945 1115.89 20.73C1115.89 19.1181 1114.65 17.838 1113.12 17.838C1111.6 17.838 1110.36 19.1181 1110.36 20.73C1110.36 22.2945 1111.6 23.5746 1113.12 23.5746ZM1128.06 48.4174C1134.14 48.4174 1137.88 44.3402 1137.88 37.5131C1137.88 30.7335 1134.14 26.6089 1128.06 26.6089C1122.02 26.6089 1118.24 30.7335 1118.24 37.5131C1118.24 44.3402 1121.93 48.4174 1128.06 48.4174ZM1128.06 44.435C1124.83 44.435 1122.99 41.9223 1122.99 37.5131C1122.99 33.1514 1124.83 30.5913 1128.06 30.5913C1131.24 30.5913 1133.13 33.1514 1133.13 37.5131C1133.08 41.9223 1131.24 44.435 1128.06 44.435ZM1140.6 47.9907H1145.21V35.8064C1145.21 32.7247 1146.96 30.7809 1149.68 30.7809C1152.49 30.7809 1153.78 32.3929 1153.78 35.5693V47.9907H1158.39V34.4315C1158.39 29.406 1155.9 26.6089 1151.38 26.6089C1148.34 26.6089 1146.31 28.0312 1145.34 30.4017H1145.02V27.0355H1140.55C1140.6 27.0355 1140.6 47.9907 1140.6 47.9907Z" fill="#EDEDED"/>
<path fill-rule="evenodd" clip-rule="evenodd" d="M979.308 11.9396C981.472 13.7181 982.255 13.5777 986.307 13.2969L1024.48 10.9567C1025.31 10.9567 1024.62 10.1143 1024.34 10.0207L1017.99 5.38722C1016.79 4.45116 1015.13 3.3279 1012.05 3.60871L975.117 6.37007C973.782 6.51048 973.506 7.21252 974.058 7.72735L979.308 11.9396ZM981.61 20.9725V61.7845C981.61 63.9842 982.669 64.7799 985.11 64.6395L1027.06 62.1589C1029.5 62.0185 1029.78 60.5208 1029.78 58.7423V18.2112C1029.78 16.4327 1029.09 15.4498 1027.61 15.5902L983.774 18.2112C982.163 18.3516 981.61 19.194 981.61 20.9725ZM1023.01 23.1723C1023.28 24.3891 1023.01 25.6528 1021.81 25.7932L1019.78 26.2144V56.3554C1018.03 57.2914 1016.42 57.8531 1015.04 57.8531C1012.88 57.8531 1012.32 57.151 1010.71 55.0917L997.497 33.9837V54.3897L1001.69 55.3257C1001.69 55.3257 1001.69 57.8063 998.326 57.8063L989.024 58.3679C988.748 57.8063 989.024 56.449 989.945 56.1682L992.385 55.4661V28.5078L989.024 28.2269C988.748 27.0101 989.438 25.2316 991.326 25.0912L1001.32 24.3891L1015.09 45.7312V26.8697L1011.59 26.4484C1011.31 24.9508 1012.42 23.8275 1013.75 23.6871L1023.01 23.1723ZM972.032 2.62585L1010.48 -0.229112C1015.18 -0.650336 1016.42 -0.369519 1019.37 1.83021L1031.62 10.5823C1033.64 12.08 1034.33 12.5012 1034.33 14.1393V62.2057C1034.33 65.2011 1033.28 66.9796 1029.5 67.2604L984.88 70.0218C982.025 70.1622 980.689 69.7409 979.216 67.822L970.144 55.8873C968.533 53.6876 967.842 52.0495 967.842 50.1306V7.39973C967.842 4.91919 968.947 2.90667 972.032 2.62585Z" fill="#EDEDED"/>
</g>
<g clip-path="url(#clip3_1445_58)">
<path d="M1299.17 9.19037H1278.39V60.4628L1299.17 9.19037Z" fill="#EDEDED"/>
<path d="M1313.79 9.19037H1334.55V60.4628L1313.79 9.19037Z" fill="#EDEDED"/>
<path d="M1306.48 28.0876L1319.71 60.4628H1311.03L1307.08 50.1553H1297.4L1306.48 28.0876Z" fill="#EDEDED"/>
<path d="M1368.46 41.7964L1370.91 49.0452C1370.99 49.2268 1371.11 49.3106 1371.33 49.3106H1376.04C1376.3 49.3106 1376.34 49.1849 1376.3 48.9195L1366.56 21.0276C1366.52 20.8042 1366.48 20.7623 1366.26 20.7623H1360.41C1360.25 20.7623 1360.16 20.888 1360.16 21.0695C1360.08 22.5361 1359.95 22.983 1359.78 23.416L1351.1 48.8776C1351.06 49.1849 1351.15 49.3106 1351.4 49.3106H1355.61C1355.86 49.3106 1355.99 49.2268 1356.08 48.9614L1358.4 41.7964H1368.46ZM1359.74 37.0616C1361.01 33.095 1362.69 28.0111 1363.37 25.106H1363.41C1364.25 28.1508 1366.22 34.1845 1367.12 37.0616H1359.74Z" fill="#EDEDED"/>
<path d="M1388.81 49.7435C1391.34 49.7435 1394.04 49.2687 1396.77 48.0535C1396.99 47.9697 1397.03 47.872 1397.03 47.6625C1396.95 46.8803 1396.85 45.749 1396.85 44.8831V18.6253C1396.85 18.4577 1396.85 18.3739 1396.65 18.3739H1392.06C1391.88 18.3739 1391.8 18.4577 1391.8 18.6812V27.5781C1391.09 27.4943 1390.58 27.4524 1389.99 27.4524C1382.58 27.4524 1378.03 32.4944 1378.03 38.7935C1378.03 46.0982 1382.7 49.7435 1388.81 49.7435ZM1391.8 44.8831C1391.04 45.1345 1390.21 45.2322 1389.35 45.2322C1385.99 45.2322 1383.25 43.2769 1383.25 38.5281C1383.25 34.3241 1386.08 31.838 1389.83 31.838C1390.58 31.838 1391.25 31.9218 1391.8 32.1453V44.8831Z" fill="#EDEDED"/>
<path d="M1411.67 27.4524C1405.35 27.4524 1401.44 32.4525 1401.44 38.6259C1401.44 44.1428 1404.55 49.7436 1411.58 49.7436C1417.52 49.7436 1421.69 45.2322 1421.69 38.4862C1421.69 32.5363 1418.16 27.4524 1411.67 27.4524ZM1411.41 31.838C1414.99 31.838 1416.5 35.0085 1416.5 38.6259C1416.5 43.0953 1414.27 45.316 1411.67 45.316C1408.46 45.316 1406.57 42.5366 1406.57 38.5281C1406.57 34.4079 1408.58 31.838 1411.41 31.838Z" fill="#EDEDED"/>
<path d="M1426.44 18.3739C1426.26 18.3739 1426.14 18.4577 1426.14 18.6812V48.4027C1426.14 48.5284 1426.26 48.7519 1426.44 48.7938C1428.45 49.4363 1430.57 49.7435 1432.75 49.7435C1438.99 49.7435 1445.05 45.749 1445.05 37.7041C1445.05 31.8799 1441.18 27.4524 1435.12 27.4524C1433.72 27.4524 1432.42 27.6759 1431.28 28.0669L1431.23 18.7231C1431.23 18.4158 1431.15 18.3739 1430.85 18.3739H1426.44ZM1439.87 38.2348C1439.87 43.0534 1436.67 45.316 1433.22 45.316C1432.5 45.316 1431.87 45.2741 1431.28 45.0926V32.4106C1431.95 32.1453 1432.75 31.9218 1434.22 31.9218C1437.55 31.9218 1439.87 34.1006 1439.87 38.2348Z" fill="#EDEDED"/>
<path d="M1462.18 39.7991C1464.24 39.7991 1465.93 39.7572 1466.52 39.6176C1466.73 39.5757 1466.81 39.4919 1466.85 39.3103C1466.98 38.8354 1467.03 37.8438 1467.03 36.6286C1467.03 32.4944 1464.62 27.4524 1458.39 27.4524C1452.03 27.4524 1448.49 32.8017 1448.49 38.8354C1448.49 44.1847 1451.23 49.7436 1458.89 49.7436C1461.76 49.7436 1463.62 49.2687 1465.22 48.4865C1465.38 48.4027 1465.46 48.2631 1465.46 48.0117V44.3942C1465.46 44.1847 1465.34 44.1428 1465.22 44.2266C1463.62 44.925 1461.88 45.2741 1459.99 45.2741C1455.7 45.2741 1453.75 42.8299 1453.63 39.7991H1462.18ZM1453.63 36.056C1453.96 33.933 1455.26 31.6285 1458.17 31.6285C1461.38 31.6285 1462.22 34.4079 1462.22 35.6649C1462.22 35.7068 1462.22 35.8884 1462.22 36.0141C1462.05 36.056 1461.51 36.056 1459.91 36.056H1453.63Z" fill="#EDEDED"/>
</g>
<g clip-path="url(#clip4_1445_58)">
<path d="M1664.15 21.9049H1676.47C1679.44 21.9049 1681.95 22.379 1684.01 23.3273C1685.9 24.1412 1687.51 25.5227 1688.62 27.2897C1689.66 29.0352 1690.19 31.0469 1690.15 33.0901C1690.18 35.1427 1689.62 37.1589 1688.56 38.8997C1687.37 40.7387 1685.68 42.1732 1683.69 43.0191C1681.51 44.0351 1678.81 44.5416 1675.59 44.5385H1664.15V21.9049ZM1675.46 38.7797C1677.46 38.7797 1679 38.2686 1680.07 37.2464C1680.62 36.706 1681.04 36.0527 1681.32 35.3303C1681.6 34.6079 1681.72 33.8331 1681.68 33.0578C1681.72 32.3381 1681.61 31.6189 1681.36 30.9441C1681.11 30.2692 1680.74 29.6528 1680.25 29.1323C1679.29 28.1533 1677.84 27.6622 1675.9 27.6591H1672.05V38.7797H1675.46Z" fill="#EDEDED"/>
<path d="M1708.61 44.5016C1706.98 44.0848 1705.43 43.4201 1703.99 42.5297V37.1634C1705.24 38.0939 1706.65 38.7797 1708.15 39.1861C1709.78 39.6964 1711.48 39.9624 1713.19 39.9758C1713.78 40.008 1714.37 39.9039 1714.91 39.671C1715.3 39.4678 1715.5 39.2092 1715.5 38.9414C1715.5 38.7917 1715.47 38.6428 1715.42 38.5037C1715.37 38.3647 1715.28 38.2386 1715.18 38.1332C1714.82 37.8495 1714.4 37.6607 1713.95 37.5836L1710.16 36.7108C1707.98 36.1935 1706.44 35.4777 1705.53 34.5633C1705.07 34.091 1704.71 33.5265 1704.48 32.9056C1704.25 32.2846 1704.14 31.6209 1704.17 30.9565C1704.16 29.7525 1704.59 28.5867 1705.38 27.6915C1706.31 26.6814 1707.49 25.9407 1708.79 25.5441C1710.46 25.0052 1712.21 24.7479 1713.97 24.7821C1715.61 24.7663 1717.24 24.9618 1718.84 25.364C1720.12 25.6756 1721.36 26.1765 1722.5 26.851V31.931C1721.43 31.2936 1720.27 30.8103 1719.07 30.4947C1717.77 30.1373 1716.42 29.9572 1715.08 29.959C1713.1 29.959 1712.11 30.3038 1712.11 30.9935C1712.1 31.1471 1712.14 31.2982 1712.22 31.428C1712.3 31.5578 1712.42 31.6605 1712.56 31.7232C1713.1 31.9585 1713.66 32.126 1714.25 32.2219L1717.4 32.8038C1719.46 33.1733 1720.99 33.8198 1722 34.7434C1723 35.6671 1723.51 37.0187 1723.51 38.7982C1723.53 39.7339 1723.3 40.6577 1722.86 41.4776C1722.42 42.2975 1721.78 42.985 1721 43.4718C1719.33 44.614 1716.96 45.1836 1713.87 45.1805C1712.1 45.1833 1710.33 44.9552 1708.61 44.5016Z" fill="#EDEDED"/>
<path d="M1730.98 43.8227C1729.29 43.0286 1727.86 41.7438 1726.88 40.1282C1725.97 38.5438 1725.5 36.7313 1725.53 34.8912C1725.5 33.0522 1726 31.2445 1726.95 29.6865C1727.97 28.0963 1729.42 26.8444 1731.12 26.0843C1733.19 25.1612 1735.44 24.7135 1737.69 24.7728C1740.85 24.7728 1743.48 25.4517 1745.56 26.8094V32.7345C1744.77 32.1888 1743.9 31.7641 1742.99 31.4737C1741.97 31.1437 1740.9 30.9801 1739.83 30.9888C1737.87 30.9888 1736.34 31.3552 1735.23 32.088C1734.73 32.3722 1734.32 32.7863 1734.03 33.2881C1733.73 33.7899 1733.58 34.3615 1733.57 34.9447C1733.57 35.528 1733.72 36.102 1734 36.6085C1734.28 37.1151 1734.69 37.5359 1735.18 37.8283C1736.26 38.5703 1737.82 38.9413 1739.86 38.9413C1740.91 38.9439 1741.96 38.7883 1742.97 38.4795C1743.9 38.2091 1744.78 37.8228 1745.61 37.3296V43.0561C1743.17 44.513 1740.38 45.2514 1737.55 45.1897C1735.29 45.2529 1733.04 44.7854 1730.98 43.8227Z" fill="#EDEDED"/>
<path d="M1753.43 43.8227C1751.72 43.0247 1750.27 41.7426 1749.25 40.1282C1748.29 38.5476 1747.8 36.7194 1747.82 34.8589C1747.79 33.0204 1748.29 31.2134 1749.25 29.6634C1750.28 28.0901 1751.72 26.8497 1753.41 26.089C1757.56 24.3648 1762.21 24.3648 1766.37 26.089C1768.05 26.8439 1769.49 28.0782 1770.5 29.645C1771.46 31.2007 1771.96 33.01 1771.93 34.8496C1771.95 36.7083 1771.46 38.5354 1770.5 40.119C1769.5 41.7345 1768.06 43.0175 1766.35 43.8135C1764.31 44.7093 1762.11 45.1713 1759.89 45.1713C1757.67 45.1713 1755.47 44.7093 1753.43 43.8135V43.8227ZM1763.03 38.087C1763.42 37.6747 1763.72 37.185 1763.92 36.6482C1764.12 36.1113 1764.21 35.5386 1764.19 34.9651C1764.21 34.397 1764.12 33.8293 1763.92 33.2982C1763.73 32.767 1763.42 32.2841 1763.03 31.8802C1762.6 31.4818 1762.11 31.1747 1761.56 30.9772C1761.02 30.7797 1760.44 30.6957 1759.87 30.7302C1759.3 30.6993 1758.72 30.785 1758.18 30.9823C1757.64 31.1797 1757.14 31.4848 1756.71 31.8802C1756.32 32.285 1756.02 32.7682 1755.82 33.2992C1755.62 33.8302 1755.53 34.3974 1755.56 34.9651C1755.53 35.5382 1755.62 36.1105 1755.82 36.6472C1756.02 37.1839 1756.32 37.6738 1756.71 38.087C1757.13 38.4903 1757.63 38.8024 1758.17 39.0048C1758.72 39.2071 1759.29 39.2955 1759.87 39.2646C1760.45 39.299 1761.03 39.2122 1761.57 39.0097C1762.11 38.8072 1762.61 38.4932 1763.03 38.087Z" fill="#EDEDED"/>
<path d="M1790.92 25.9689V32.9608C1789.97 32.3849 1788.89 32.1039 1787.79 32.1526C1786.1 32.1526 1784.8 32.6791 1783.9 33.7228C1783 34.7665 1782.55 36.3875 1782.55 38.5857V44.5339H1774.81V25.6225H1782.39V31.6261C1782.81 29.4279 1783.49 27.8069 1784.43 26.7632C1784.89 26.25 1785.44 25.8438 1786.07 25.5728C1786.69 25.3017 1787.36 25.1721 1788.04 25.193C1789.05 25.1648 1790.05 25.4341 1790.92 25.9689Z" fill="#EDEDED"/>
<path d="M1816.64 21.2584V44.5339H1808.9V40.2852C1808.31 41.7978 1807.26 43.0751 1805.91 43.9243C1804.41 44.7966 1802.71 45.2311 1800.99 45.1804C1799.37 45.219 1797.77 44.7641 1796.41 43.8735C1795.08 42.9938 1794.03 41.7501 1793.36 40.2852C1792.64 38.6682 1792.28 36.9054 1792.31 35.1267C1792.26 33.2825 1792.64 31.4529 1793.43 29.7927C1794.15 28.2721 1795.28 26.9914 1796.68 26.0982C1798.12 25.204 1799.78 24.7446 1801.47 24.7728C1805.15 24.7728 1807.63 26.4107 1808.9 29.6865V21.2584H1816.64ZM1807.76 37.9761C1808.15 37.5788 1808.46 37.1018 1808.67 36.5754C1808.87 36.049 1808.97 35.4849 1808.95 34.9189C1808.96 34.3698 1808.87 33.8234 1808.66 33.3156C1808.46 32.8077 1808.15 32.35 1807.76 31.9725C1806.87 31.2348 1805.77 30.832 1804.62 30.832C1803.48 30.832 1802.37 31.2348 1801.49 31.9725C1801.1 32.3586 1800.79 32.8243 1800.59 33.3391C1800.39 33.8539 1800.3 34.4063 1800.32 34.9605C1800.3 35.5198 1800.39 36.0771 1800.6 36.5965C1800.8 37.116 1801.11 37.5859 1801.5 37.9761C1801.92 38.3705 1802.4 38.6762 1802.94 38.8753C1803.47 39.0743 1804.03 39.1627 1804.6 39.1353C1805.17 39.1678 1805.75 39.082 1806.29 38.8829C1806.84 38.6838 1807.33 38.3755 1807.76 37.9761Z" fill="#EDEDED"/>
<path d="M1635.64 16.3031C1631.87 14.537 1627.89 13.284 1623.8 12.5762C1623.24 13.5996 1622.74 14.6524 1622.29 15.7304C1617.93 15.059 1613.5 15.059 1609.15 15.7304C1608.7 14.6525 1608.19 13.5997 1607.63 12.5762C1603.54 13.29 1599.56 14.5459 1595.78 16.3123C1588.29 27.6545 1586.26 38.715 1587.27 49.6185C1591.66 52.9356 1596.57 55.4582 1601.79 57.0769C1602.97 55.459 1604.01 53.7427 1604.9 51.9461C1603.21 51.2973 1601.57 50.4968 1600.01 49.5539C1600.42 49.2491 1600.82 48.935 1601.21 48.6302C1605.75 50.8153 1610.71 51.9482 1615.72 51.9482C1620.74 51.9482 1625.7 50.8153 1630.24 48.6302C1630.63 48.9581 1631.04 49.2722 1631.44 49.5539C1629.88 50.4983 1628.24 51.3003 1626.53 51.9507C1627.43 53.7465 1628.47 55.4614 1629.64 57.0769C1634.87 55.4647 1639.79 52.9432 1644.18 49.6231C1645.37 36.9786 1642.14 26.0197 1635.64 16.3031ZM1606.19 42.9129C1603.36 42.9129 1601.02 40.2852 1601.02 37.0525C1601.02 33.8198 1603.28 31.169 1606.18 31.169C1609.08 31.169 1611.4 33.8198 1611.35 37.0525C1611.3 40.2852 1609.08 42.9129 1606.19 42.9129ZM1625.26 42.9129C1622.42 42.9129 1620.09 40.2852 1620.09 37.0525C1620.09 33.8198 1622.35 31.169 1625.26 31.169C1628.16 31.169 1630.47 33.8198 1630.42 37.0525C1630.37 40.2852 1628.14 42.9129 1625.26 42.9129Z" fill="#EDEDED"/>
<path d="M1696.68 27.636C1698.81 27.636 1700.54 26.0481 1700.54 24.0893C1700.54 22.1305 1698.81 20.5425 1696.68 20.5425C1694.55 20.5425 1692.82 22.1305 1692.82 24.0893C1692.82 26.0481 1694.55 27.636 1696.68 27.636Z" fill="#EDEDED"/>
<path d="M1692.82 30.0791C1694.04 30.6048 1695.35 30.8756 1696.68 30.8756C1698 30.8756 1699.32 30.6048 1700.54 30.0791V44.6356H1692.82V30.0791Z" fill="#EDEDED"/>
</g>
<g clip-path="url(#clip5_1445_58)">
<path d="M1993.21 34.8265C1993.21 50.6484 1980.55 63.4762 1964.93 63.4762C1949.3 63.4762 1936.64 50.6484 1936.64 34.8265C1936.64 19.0047 1949.3 6.17688 1964.93 6.17688C1980.55 6.17688 1993.21 19.0047 1993.21 34.8265Z" fill="#EDEDED"/>
<path d="M1950.6 35.7892L1950.72 35.5949L1958.08 23.9358C1958.18 23.7651 1958.44 23.7827 1958.52 23.9681C1959.75 26.7586 1960.81 30.2289 1960.31 32.3895C1960.1 33.2784 1959.52 34.4823 1958.86 35.5949C1958.78 35.7568 1958.69 35.9158 1958.59 36.0688C1958.54 36.1395 1958.46 36.1807 1958.38 36.1807H1950.81C1950.61 36.1807 1950.49 35.957 1950.6 35.7892Z" fill="#1C1C1C"/>
<path d="M1983.4 37.9556V39.8012C1983.4 39.9071 1983.33 40.0013 1983.24 40.0425C1982.67 40.2898 1980.72 41.1964 1979.91 42.3385C1977.84 45.2555 1976.26 49.4264 1972.72 49.4264H1957.98C1952.75 49.4264 1948.52 45.123 1948.52 39.8129V39.6422C1948.52 39.5009 1948.63 39.3862 1948.77 39.3862H1956.99C1957.15 39.3862 1957.27 39.5392 1957.26 39.7011C1957.2 40.2427 1957.3 40.7961 1957.55 41.2994C1958.04 42.3032 1959.05 42.9301 1960.14 42.9301H1964.21V39.7129H1960.19C1959.98 39.7129 1959.86 39.4715 1959.98 39.3008C1960.03 39.2331 1960.08 39.1625 1960.13 39.083C1960.51 38.5355 1961.05 37.6848 1961.59 36.7164C1961.96 36.063 1962.32 35.3654 1962.61 34.6648C1962.66 34.5382 1962.71 34.4087 1962.76 34.2821C1962.84 34.0584 1962.92 33.8495 1962.98 33.6405C1963.03 33.4638 1963.08 33.2784 1963.13 33.1047C1963.26 32.5101 1963.32 31.8802 1963.32 31.2268C1963.32 30.9707 1963.31 30.7029 1963.29 30.4468C1963.27 30.1672 1963.24 29.8875 1963.21 29.6079C1963.18 29.3606 1963.14 29.1163 1963.09 28.8602C1963.03 28.4864 1962.95 28.1156 1962.86 27.7417L1962.83 27.6004C1962.76 27.3443 1962.7 27.1 1962.62 26.844C1962.39 26.0404 1962.12 25.2574 1961.84 24.5245C1961.74 24.2331 1961.63 23.9535 1961.51 23.6738C1961.34 23.2529 1961.16 22.8703 1961.01 22.5082C1960.92 22.3433 1960.85 22.1932 1960.78 22.0402C1960.71 21.8665 1960.62 21.6928 1960.54 21.528C1960.48 21.4015 1960.42 21.2837 1960.37 21.166L1959.87 20.2358C1959.8 20.1092 1959.92 19.9591 1960.06 19.9974L1963.17 20.851H1963.18C1963.18 20.851 1963.18 20.854 1963.19 20.854L1963.6 20.9687L1964.05 21.0983L1964.21 21.1453V19.2733C1964.21 18.3696 1964.93 17.6367 1965.81 17.6367C1966.25 17.6367 1966.65 17.8192 1966.94 18.1165C1967.23 18.4138 1967.41 18.82 1967.41 19.2733V22.052L1967.74 22.1461C1967.77 22.155 1967.79 22.1667 1967.82 22.1844C1967.9 22.2462 1968.02 22.3374 1968.16 22.4493C1968.28 22.5435 1968.4 22.6583 1968.56 22.7761C1968.86 23.0203 1969.21 23.3353 1969.6 23.6974C1969.71 23.7886 1969.81 23.8828 1969.9 23.977C1970.41 24.4539 1970.98 25.0131 1971.52 25.6312C1971.67 25.8049 1971.82 25.9815 1971.97 26.1669C1972.12 26.3553 1972.28 26.5407 1972.42 26.7262C1972.6 26.9735 1972.8 27.2295 1972.97 27.4974C1973.05 27.624 1973.14 27.7535 1973.22 27.8801C1973.44 28.2185 1973.64 28.5689 1973.82 28.9191C1973.9 29.081 1973.98 29.2576 1974.05 29.4313C1974.26 29.8993 1974.42 30.3761 1974.53 30.853C1974.56 30.956 1974.58 31.0679 1974.6 31.168V31.1915C1974.63 31.3328 1974.64 31.4829 1974.65 31.6359C1974.7 32.1246 1974.68 32.6132 1974.57 33.1047C1974.53 33.3138 1974.47 33.5109 1974.4 33.72C1974.33 33.9201 1974.26 34.1291 1974.17 34.3263C1974 34.7354 1973.79 35.1446 1973.55 35.5272C1973.47 35.6685 1973.37 35.8187 1973.28 35.96C1973.18 36.11 1973.07 36.2513 1972.98 36.3897C1972.85 36.5663 1972.72 36.7517 1972.58 36.9166C1972.45 37.0902 1972.33 37.2639 1972.19 37.417C1971.99 37.6495 1971.8 37.8703 1971.61 38.0822C1971.49 38.2205 1971.37 38.3618 1971.24 38.4884C1971.12 38.6296 1970.99 38.7562 1970.87 38.874C1970.68 39.0712 1970.51 39.2242 1970.38 39.3508L1970.06 39.6481C1970.01 39.6893 1969.95 39.7129 1969.89 39.7129H1967.41V42.9301H1970.53C1971.22 42.9301 1971.89 42.6799 1972.42 42.2207C1972.6 42.0588 1973.4 41.3583 1974.35 40.3016C1974.38 40.2662 1974.42 40.2398 1974.47 40.228L1983.07 37.7084C1983.23 37.6613 1983.4 37.7849 1983.4 37.9556Z" fill="#1C1C1C"/>
<path d="M2020.78 48.5764C2018.22 48.5764 2015.87 47.9961 2013.73 46.8353C2011.61 45.6745 2009.92 44.0595 2008.65 41.9903C2007.41 39.8958 2006.79 37.549 2006.79 34.9499C2006.79 32.3508 2007.41 30.0166 2008.65 27.9474C2009.92 25.8782 2011.61 24.2631 2013.73 23.1024C2015.87 21.9416 2018.22 21.3612 2020.78 21.3612C2023.34 21.3612 2025.68 21.9416 2027.79 23.1024C2029.94 24.2631 2031.62 25.8782 2032.83 27.9474C2034.07 30.0166 2034.69 32.3508 2034.69 34.9499C2034.69 37.549 2034.07 39.8958 2032.83 41.9903C2031.59 44.0595 2029.91 45.6745 2027.79 46.8353C2025.68 47.9961 2023.34 48.5764 2020.78 48.5764ZM2020.78 42.6716C2022.95 42.6716 2024.68 41.965 2025.97 40.5519C2027.29 39.1388 2027.95 37.2715 2027.95 34.9499C2027.95 32.6031 2027.29 30.7358 2025.97 29.3479C2024.68 27.9348 2022.95 27.2282 2020.78 27.2282C2018.58 27.2282 2016.83 27.9222 2015.51 29.31C2014.22 30.6979 2013.57 32.5778 2013.57 34.9499C2013.57 37.2967 2014.22 39.1767 2015.51 40.5898C2016.83 41.9777 2018.58 42.6716 2020.78 42.6716Z" fill="#EDEDED"/>
<path d="M2045 30.1806C2045.65 29.1965 2046.54 28.4016 2047.68 27.796C2048.81 27.1903 2050.14 26.8875 2051.67 26.8875C2053.45 26.8875 2055.06 27.3291 2056.51 28.2123C2057.96 29.0955 2059.09 30.3573 2059.92 31.9975C2060.77 33.6377 2061.2 35.5429 2061.2 37.7131C2061.2 39.8832 2060.77 41.801 2059.92 43.4665C2059.09 45.1068 2057.96 46.381 2056.51 47.2895C2055.06 48.1727 2053.45 48.6143 2051.67 48.6143C2050.17 48.6143 2048.84 48.3115 2047.68 47.7059C2046.54 47.1003 2045.65 46.318 2045 45.359V54.5948H2038.38V27.1903H2045V30.1806ZM2054.46 37.7131C2054.46 36.0981 2053.99 34.8364 2053.06 33.9279C2052.16 32.9942 2051.03 32.5274 2049.69 32.5274C2048.37 32.5274 2047.25 32.9942 2046.32 33.9279C2045.42 34.8616 2044.96 36.1359 2044.96 37.7509C2044.96 39.3659 2045.42 40.6403 2046.32 41.5739C2047.25 42.5076 2048.37 42.9744 2049.69 42.9744C2051.01 42.9744 2052.13 42.5076 2053.06 41.5739C2053.99 40.615 2054.46 39.3281 2054.46 37.7131Z" fill="#EDEDED"/>
<path d="M2085.05 37.4102C2085.05 38.0159 2085.01 38.6467 2084.94 39.3028H2069.94C2070.05 40.615 2070.47 41.6244 2071.22 42.3309C2072 43.0123 2072.94 43.3529 2074.05 43.3529C2075.7 43.3529 2076.85 42.6716 2077.5 41.309H2084.55C2084.19 42.6969 2083.53 43.9459 2082.57 45.0563C2081.64 46.1666 2080.47 47.0372 2079.05 47.668C2077.63 48.2988 2076.04 48.6143 2074.28 48.6143C2072.16 48.6143 2070.28 48.1727 2068.62 47.2895C2066.97 46.4063 2065.68 45.1446 2064.75 43.5043C2063.82 41.8641 2063.36 39.9463 2063.36 37.7509C2063.36 35.5555 2063.81 33.6377 2064.71 31.9975C2065.64 30.3573 2066.93 29.0955 2068.59 28.2123C2070.24 27.3291 2072.14 26.8875 2074.28 26.8875C2076.37 26.8875 2078.23 27.3165 2079.86 28.1745C2081.49 29.0325 2082.75 30.2563 2083.66 31.8461C2084.59 33.4359 2085.05 35.2906 2085.05 37.4102ZM2078.27 35.7069C2078.27 34.5966 2077.89 33.7134 2077.11 33.0573C2076.34 32.4013 2075.37 32.0732 2074.2 32.0732C2073.09 32.0732 2072.15 32.3886 2071.38 33.0195C2070.63 33.6503 2070.16 34.5461 2069.98 35.7069H2078.27Z" fill="#EDEDED"/>
<path d="M2101.72 26.9633C2104.25 26.9633 2106.27 27.7707 2107.77 29.3858C2109.29 30.9755 2110.05 33.1709 2110.05 35.9719V48.3115H2103.47V36.8425C2103.47 35.4293 2103.09 34.3317 2102.34 33.5494C2101.59 32.7671 2100.59 32.376 2099.32 32.376C2098.05 32.376 2097.05 32.7671 2096.3 33.5494C2095.55 34.3317 2095.17 35.4293 2095.17 36.8425V48.3115H2088.55V27.1903H2095.17V29.9914C2095.85 29.0577 2096.75 28.3259 2097.89 27.796C2099.02 27.2408 2100.3 26.9633 2101.72 26.9633Z" fill="#EDEDED"/>
<path d="M2124.5 48.5764C2122.51 48.5764 2120.73 48.261 2119.15 47.6301C2117.58 46.9993 2116.31 46.0656 2115.36 44.8291C2114.43 43.5927 2113.93 42.1039 2113.88 40.3626H2120.93C2121.04 41.3468 2121.39 42.1039 2121.98 42.6338C2122.58 43.1384 2123.35 43.3908 2124.31 43.3908C2125.29 43.3908 2126.06 43.1763 2126.63 42.7473C2127.2 42.2931 2127.48 41.6749 2127.48 40.8926C2127.48 40.2365 2127.25 39.694 2126.79 39.265C2126.35 38.836 2125.79 38.4827 2125.12 38.2051C2124.47 37.9275 2123.54 37.6121 2122.33 37.2588C2120.57 36.7289 2119.14 36.199 2118.03 35.6691C2116.92 35.1392 2115.96 34.3569 2115.16 33.3223C2114.36 32.2877 2113.96 30.9376 2113.96 29.2722C2113.96 26.7992 2114.88 24.8688 2116.71 23.4809C2118.55 22.0678 2120.93 21.3612 2123.88 21.3612C2126.88 21.3612 2129.29 22.0678 2131.12 23.4809C2132.96 24.8688 2133.94 26.8118 2134.07 29.31H2126.9C2126.85 28.4521 2126.53 27.7833 2125.93 27.3039C2125.34 26.7992 2124.58 26.5469 2123.65 26.5469C2122.85 26.5469 2122.2 26.7613 2121.71 27.1903C2121.22 27.5941 2120.97 28.1871 2120.97 28.9694C2120.97 29.8273 2121.39 30.496 2122.21 30.9755C2123.04 31.4549 2124.33 31.9722 2126.09 32.5274C2127.84 33.1078 2129.27 33.6629 2130.35 34.1929C2131.46 34.7228 2132.42 35.4924 2133.22 36.5018C2134.02 37.5112 2134.42 38.8107 2134.42 40.4005C2134.42 41.9146 2134.02 43.2898 2133.22 44.5263C2132.44 45.7628 2131.31 46.7469 2129.81 47.4788C2128.31 48.2105 2126.54 48.5764 2124.5 48.5764Z" fill="#EDEDED"/>
<path d="M2158.88 37.4102C2158.88 38.0159 2158.84 38.6467 2158.76 39.3028H2143.76C2143.87 40.615 2144.29 41.6244 2145.04 42.3309C2145.82 43.0123 2146.76 43.3529 2147.87 43.3529C2149.52 43.3529 2150.67 42.6716 2151.32 41.309H2158.37C2158.01 42.6969 2157.35 43.9459 2156.4 45.0563C2155.47 46.1666 2154.29 47.0372 2152.87 47.668C2151.45 48.2988 2149.86 48.6143 2148.1 48.6143C2145.99 48.6143 2144.1 48.1727 2142.45 47.2895C2140.79 46.4063 2139.5 45.1446 2138.57 43.5043C2137.64 41.8641 2137.18 39.9463 2137.18 37.7509C2137.18 35.5555 2137.63 33.6377 2138.53 31.9975C2139.46 30.3573 2140.76 29.0955 2142.41 28.2123C2144.06 27.3291 2145.96 26.8875 2148.1 26.8875C2150.2 26.8875 2152.06 27.3165 2153.68 28.1745C2155.31 29.0325 2156.58 30.2563 2157.48 31.8461C2158.41 33.4359 2158.88 35.2906 2158.88 37.4102ZM2152.1 35.7069C2152.1 34.5966 2151.71 33.7134 2150.93 33.0573C2150.16 32.4013 2149.19 32.0732 2148.03 32.0732C2146.92 32.0732 2145.97 32.3886 2145.2 33.0195C2144.45 33.6503 2143.98 34.5461 2143.8 35.7069H2152.1Z" fill="#EDEDED"/>
<path d="M2161.05 37.7131C2161.05 35.5429 2161.47 33.6377 2162.29 31.9975C2163.14 30.3573 2164.29 29.0955 2165.74 28.2123C2167.19 27.3291 2168.8 26.8875 2170.58 26.8875C2172.11 26.8875 2173.44 27.1903 2174.58 27.796C2175.74 28.4016 2176.63 29.1965 2177.25 30.1806V27.1903H2183.87V48.3115H2177.25V45.3212C2176.6 46.3053 2175.7 47.1003 2174.54 47.7059C2173.4 48.3115 2172.07 48.6143 2170.55 48.6143C2168.79 48.6143 2167.19 48.1727 2165.74 47.2895C2164.29 46.381 2163.14 45.1068 2162.29 43.4665C2161.47 41.801 2161.05 39.8832 2161.05 37.7131ZM2177.25 37.7509C2177.25 36.1359 2176.78 34.8616 2175.85 33.9279C2174.95 32.9942 2173.84 32.5274 2172.52 32.5274C2171.2 32.5274 2170.08 32.9942 2169.15 33.9279C2168.25 34.8364 2167.79 36.0981 2167.79 37.7131C2167.79 39.3281 2168.25 40.615 2169.15 41.5739C2170.08 42.5076 2171.2 42.9744 2172.52 42.9744C2173.84 42.9744 2174.95 42.5076 2175.85 41.5739C2176.78 40.6403 2177.25 39.3659 2177.25 37.7509Z" fill="#EDEDED"/>
</g>
<defs>
<clipPath id="clip0_1445_58">
<rect width="217.223" height="55.1421" fill="white" transform="translate(320.074 7.25555)"/>
</clipPath>
<clipPath id="clip1_1445_58">
<rect width="190.546" height="68.6857" fill="white" transform="translate(657.297 0.483704)"/>
</clipPath>
<clipPath id="clip2_1445_58">
<rect width="190.546" height="69.6531" fill="white" transform="translate(967.842)"/>
</clipPath>
<clipPath id="clip3_1445_58">
<rect width="188.641" height="51.2725" fill="white" transform="translate(1278.39 9.19037)"/>
</clipPath>
<clipPath id="clip4_1445_58">
<rect width="229.608" height="44.5006" fill="white" transform="translate(1587.03 12.5762)"/>
</clipPath>
<clipPath id="clip5_1445_58">
<rect width="247.236" height="57.2993" fill="white" transform="translate(1936.64 6.17688)"/>
</clipPath>
</defs>
</svg>
